<svg xmlns="http://www.w3.org/2000/svg" xmlns:xlink="http://www.w3.org/1999/xlink" width="500" zoomAndPan="magnify" viewBox="0 0 375 374.999991" height="500" preserveAspectRatio="xMidYMid meet" version="1.0"><defs><g/><clipPath id="0f8818623a"><path d="M 161.347656 164.925781 L 213.882812 164.925781 L 213.882812 210.058594 L 161.347656 210.058594 Z M 161.347656 164.925781 " clip-rule="nonzero"/></clipPath><clipPath id="dffc3bad71"><path d="M 213.867188 187.492188 L 200.734375 210.058594 L 174.476562 210.058594 L 161.347656 187.492188 L 174.476562 164.925781 L 200.734375 164.925781 Z M 213.867188 187.492188 " clip-rule="nonzero"/></clipPath><clipPath id="2510c11124"><path d="M 161.347656 164.925781 L 213.847656 164.925781 L 213.847656 209.925781 L 161.347656 209.925781 Z M 161.347656 164.925781 " clip-rule="nonzero"/></clipPath><clipPath id="3ed742ea99"><path d="M 213.859375 187.492188 L 200.734375 210.054688 L 174.476562 210.054688 L 161.347656 187.492188 L 174.476562 164.925781 L 200.734375 164.925781 Z M 213.859375 187.492188 " clip-rule="nonzero"/></clipPath><clipPath id="6407e00bec"><path d="M 161.347656 118.886719 L 213.882812 118.886719 L 213.882812 164.019531 L 161.347656 164.019531 Z M 161.347656 118.886719 " clip-rule="nonzero"/></clipPath><clipPath id="dd8e88e079"><path d="M 213.867188 141.453125 L 200.734375 164.019531 L 174.476562 164.019531 L 161.347656 141.453125 L 174.476562 118.886719 L 200.734375 118.886719 Z M 213.867188 141.453125 " clip-rule="nonzero"/></clipPath><clipPath id="dca1169fc0"><path d="M 161.347656 118.890625 L 213.847656 118.890625 L 213.847656 163.886719 L 161.347656 163.886719 Z M 161.347656 118.890625 " clip-rule="nonzero"/></clipPath><clipPath id="f4198edd7a"><path d="M 213.859375 141.453125 L 200.734375 164.015625 L 174.476562 164.015625 L 161.347656 141.453125 L 174.476562 118.890625 L 200.734375 118.890625 Z M 213.859375 141.453125 " clip-rule="nonzero"/></clipPath><clipPath id="5b3a7fbe70"><path d="M 201.707031 141.898438 L 254.242188 141.898438 L 254.242188 187.03125 L 201.707031 187.03125 Z M 201.707031 141.898438 " clip-rule="nonzero"/></clipPath><clipPath id="7617eb5f1b"><path d="M 254.222656 164.464844 L 241.09375 187.03125 L 214.835938 187.03125 L 201.707031 164.464844 L 214.835938 141.898438 L 241.09375 141.898438 Z M 254.222656 164.464844 " clip-rule="nonzero"/></clipPath><clipPath id="9612a43f0b"><path d="M 201.707031 141.898438 L 254.207031 141.898438 L 254.207031 186.898438 L 201.707031 186.898438 Z M 201.707031 141.898438 " clip-rule="nonzero"/></clipPath><clipPath id="158ac10c9b"><path d="M 254.21875 164.460938 L 241.089844 187.027344 L 214.835938 187.027344 L 201.707031 164.460938 L 214.835938 141.898438 L 241.089844 141.898438 Z M 254.21875 164.460938 " clip-rule="nonzero"/></clipPath><clipPath id="cc07ac13be"><path d="M 201.707031 187.96875 L 254.242188 187.96875 L 254.242188 233.101562 L 201.707031 233.101562 Z M 201.707031 187.96875 " clip-rule="nonzero"/></clipPath><clipPath id="95256b4abd"><path d="M 254.222656 210.535156 L 241.09375 233.101562 L 214.835938 233.101562 L 201.707031 210.535156 L 214.835938 187.96875 L 241.09375 187.96875 Z M 254.222656 210.535156 " clip-rule="nonzero"/></clipPath><clipPath id="95c82874b7"><path d="M 201.707031 187.972656 L 254.207031 187.972656 L 254.207031 232.96875 L 201.707031 232.96875 Z M 201.707031 187.972656 " clip-rule="nonzero"/></clipPath><clipPath id="84b5725e9d"><path d="M 254.21875 210.535156 L 241.089844 233.097656 L 214.835938 233.097656 L 201.707031 210.535156 L 214.835938 187.972656 L 241.089844 187.972656 Z M 254.21875 210.535156 " clip-rule="nonzero"/></clipPath><clipPath id="a11eeffabd"><path d="M 161.347656 210.964844 L 213.882812 210.964844 L 213.882812 256.09375 L 161.347656 256.09375 Z M 161.347656 210.964844 " clip-rule="nonzero"/></clipPath><clipPath id="f4c77ecb4e"><path d="M 213.867188 233.53125 L 200.734375 256.09375 L 174.476562 256.09375 L 161.347656 233.53125 L 174.476562 210.964844 L 200.734375 210.964844 Z M 213.867188 233.53125 " clip-rule="nonzero"/></clipPath><clipPath id="5cdafaba87"><path d="M 161.347656 210.964844 L 213.847656 210.964844 L 213.847656 255.964844 L 161.347656 255.964844 Z M 161.347656 210.964844 " clip-rule="nonzero"/></clipPath><clipPath id="4ed3548d83"><path d="M 213.859375 233.527344 L 200.734375 256.09375 L 174.476562 256.09375 L 161.347656 233.527344 L 174.476562 210.964844 L 200.734375 210.964844 Z M 213.859375 233.527344 " clip-rule="nonzero"/></clipPath><clipPath id="e09d969ebc"><path d="M 120.988281 141.898438 L 173.527344 141.898438 L 173.527344 187.03125 L 120.988281 187.03125 Z M 120.988281 141.898438 " clip-rule="nonzero"/></clipPath><clipPath id="2239085679"><path d="M 173.507812 164.464844 L 160.378906 187.03125 L 134.121094 187.03125 L 120.988281 164.464844 L 134.121094 141.898438 L 160.378906 141.898438 Z M 173.507812 164.464844 " clip-rule="nonzero"/></clipPath><clipPath id="0854fc6a66"><path d="M 120.988281 141.898438 L 173.488281 141.898438 L 173.488281 186.898438 L 120.988281 186.898438 Z M 120.988281 141.898438 " clip-rule="nonzero"/></clipPath><clipPath id="f816d06fdc"><path d="M 173.5 164.460938 L 160.375 187.027344 L 134.117188 187.027344 L 120.988281 164.460938 L 134.117188 141.898438 L 160.375 141.898438 Z M 173.5 164.460938 " clip-rule="nonzero"/></clipPath><clipPath id="2c3ecb166d"><path d="M 120.988281 187.96875 L 173.527344 187.96875 L 173.527344 233.101562 L 120.988281 233.101562 Z M 120.988281 187.96875 " clip-rule="nonzero"/></clipPath><clipPath id="a45924d2f7"><path d="M 173.507812 210.535156 L 160.378906 233.101562 L 134.121094 233.101562 L 120.988281 210.535156 L 134.121094 187.96875 L 160.378906 187.96875 Z M 173.507812 210.535156 " clip-rule="nonzero"/></clipPath><clipPath id="cc5d3552cb"><path d="M 120.988281 187.972656 L 173.488281 187.972656 L 173.488281 232.96875 L 120.988281 232.96875 Z M 120.988281 187.972656 " clip-rule="nonzero"/></clipPath><clipPath id="cbaef444af"><path d="M 173.5 210.535156 L 160.375 233.097656 L 134.117188 233.097656 L 120.988281 210.535156 L 134.117188 187.972656 L 160.375 187.972656 Z M 173.5 210.535156 " clip-rule="nonzero"/></clipPath><clipPath id="b549494d4d"><path d="M 242.066406 72.851562 L 294.601562 72.851562 L 294.601562 117.980469 L 242.066406 117.980469 Z M 242.066406 72.851562 " clip-rule="nonzero"/></clipPath><clipPath id="cee8ae85bc"><path d="M 294.582031 95.414062 L 281.453125 117.980469 L 255.195312 117.980469 L 242.066406 95.414062 L 255.195312 72.851562 L 281.453125 72.851562 Z M 294.582031 95.414062 " clip-rule="nonzero"/></clipPath><clipPath id="77193b2938"><path d="M 242.066406 72.851562 L 294.566406 72.851562 L 294.566406 117.851562 L 242.066406 117.851562 Z M 242.066406 72.851562 " clip-rule="nonzero"/></clipPath><clipPath id="0a6be331ff"><path d="M 294.578125 95.414062 L 281.449219 117.976562 L 255.195312 117.976562 L 242.066406 95.414062 L 255.195312 72.851562 L 281.449219 72.851562 Z M 294.578125 95.414062 " clip-rule="nonzero"/></clipPath><clipPath id="a6a3806dc2"><path d="M 242.066406 26.8125 L 294.601562 26.8125 L 294.601562 71.941406 L 242.066406 71.941406 Z M 242.066406 26.8125 " clip-rule="nonzero"/></clipPath><clipPath id="2fd9c6c5d7"><path d="M 294.582031 49.378906 L 281.453125 71.941406 L 255.195312 71.941406 L 242.066406 49.378906 L 255.195312 26.8125 L 281.453125 26.8125 Z M 294.582031 49.378906 " clip-rule="nonzero"/></clipPath><clipPath id="c28c28bbd1"><path d="M 242.066406 26.8125 L 294.566406 26.8125 L 294.566406 71.8125 L 242.066406 71.8125 Z M 242.066406 26.8125 " clip-rule="nonzero"/></clipPath><clipPath id="49b79c1c2d"><path d="M 294.578125 49.375 L 281.449219 71.941406 L 255.195312 71.941406 L 242.066406 49.375 L 255.195312 26.8125 L 281.449219 26.8125 Z M 294.578125 49.375 " clip-rule="nonzero"/></clipPath><clipPath id="78b70c18a2"><path d="M 282.425781 49.820312 L 334.960938 49.820312 L 334.960938 94.953125 L 282.425781 94.953125 Z M 282.425781 49.820312 " clip-rule="nonzero"/></clipPath><clipPath id="78c8e00fa9"><path d="M 334.941406 72.386719 L 321.8125 94.953125 L 295.554688 94.953125 L 282.425781 72.386719 L 295.554688 49.820312 L 321.8125 49.820312 Z M 334.941406 72.386719 " clip-rule="nonzero"/></clipPath><clipPath id="b2563f0e41"><path d="M 282.425781 49.824219 L 334.925781 49.824219 L 334.925781 94.820312 L 282.425781 94.820312 Z M 282.425781 49.824219 " clip-rule="nonzero"/></clipPath><clipPath id="dcc26d24a2"><path d="M 334.9375 72.386719 L 321.808594 94.949219 L 295.554688 94.949219 L 282.425781 72.386719 L 295.554688 49.824219 L 321.808594 49.824219 Z M 334.9375 72.386719 " clip-rule="nonzero"/></clipPath><clipPath id="02cd307709"><path d="M 282.425781 95.894531 L 334.960938 95.894531 L 334.960938 141.027344 L 282.425781 141.027344 Z M 282.425781 95.894531 " clip-rule="nonzero"/></clipPath><clipPath id="5c9097a1fb"><path d="M 334.941406 118.460938 L 321.8125 141.027344 L 295.554688 141.027344 L 282.425781 118.460938 L 295.554688 95.894531 L 321.8125 95.894531 Z M 334.941406 118.460938 " clip-rule="nonzero"/></clipPath><clipPath id="da02ca3e7c"><path d="M 282.425781 95.894531 L 334.925781 95.894531 L 334.925781 140.894531 L 282.425781 140.894531 Z M 282.425781 95.894531 " clip-rule="nonzero"/></clipPath><clipPath id="dfe73d80e2"><path d="M 334.9375 118.457031 L 321.808594 141.023438 L 295.554688 141.023438 L 282.425781 118.457031 L 295.554688 95.894531 L 321.808594 95.894531 Z M 334.9375 118.457031 " clip-rule="nonzero"/></clipPath><clipPath id="6855a7eced"><path d="M 242.066406 118.886719 L 294.601562 118.886719 L 294.601562 164.019531 L 242.066406 164.019531 Z M 242.066406 118.886719 " clip-rule="nonzero"/></clipPath><clipPath id="76fe2df5fa"><path d="M 294.582031 141.453125 L 281.453125 164.019531 L 255.195312 164.019531 L 242.066406 141.453125 L 255.195312 118.886719 L 281.453125 118.886719 Z M 294.582031 141.453125 " clip-rule="nonzero"/></clipPath><clipPath id="b54196bc23"><path d="M 242.066406 118.890625 L 294.566406 118.890625 L 294.566406 163.886719 L 242.066406 163.886719 Z M 242.066406 118.890625 " clip-rule="nonzero"/></clipPath><clipPath id="34ca991da0"><path d="M 294.578125 141.453125 L 281.449219 164.015625 L 255.195312 164.015625 L 242.066406 141.453125 L 255.195312 118.890625 L 281.449219 118.890625 Z M 294.578125 141.453125 " clip-rule="nonzero"/></clipPath><clipPath id="cedee34d38"><path d="M 201.707031 49.820312 L 254.242188 49.820312 L 254.242188 94.953125 L 201.707031 94.953125 Z M 201.707031 49.820312 " clip-rule="nonzero"/></clipPath><clipPath id="42826deec0"><path d="M 254.222656 72.386719 L 241.09375 94.953125 L 214.835938 94.953125 L 201.707031 72.386719 L 214.835938 49.820312 L 241.09375 49.820312 Z M 254.222656 72.386719 " clip-rule="nonzero"/></clipPath><clipPath id="6fafd6b22f"><path d="M 201.707031 49.824219 L 254.207031 49.824219 L 254.207031 94.820312 L 201.707031 94.820312 Z M 201.707031 49.824219 " clip-rule="nonzero"/></clipPath><clipPath id="cadb369166"><path d="M 254.21875 72.386719 L 241.089844 94.949219 L 214.835938 94.949219 L 201.707031 72.386719 L 214.835938 49.824219 L 241.089844 49.824219 Z M 254.21875 72.386719 " clip-rule="nonzero"/></clipPath><clipPath id="978960866a"><path d="M 201.707031 95.894531 L 254.242188 95.894531 L 254.242188 141.027344 L 201.707031 141.027344 Z M 201.707031 95.894531 " clip-rule="nonzero"/></clipPath><clipPath id="5667013fdc"><path d="M 254.222656 118.460938 L 241.09375 141.027344 L 214.835938 141.027344 L 201.707031 118.460938 L 214.835938 95.894531 L 241.09375 95.894531 Z M 254.222656 118.460938 " clip-rule="nonzero"/></clipPath><clipPath id="c95e699c25"><path d="M 201.707031 95.894531 L 254.207031 95.894531 L 254.207031 140.894531 L 201.707031 140.894531 Z M 201.707031 95.894531 " clip-rule="nonzero"/></clipPath><clipPath id="5eb7bc2d7a"><path d="M 254.21875 118.457031 L 241.089844 141.023438 L 214.835938 141.023438 L 201.707031 118.457031 L 214.835938 95.894531 L 241.089844 95.894531 Z M 254.21875 118.457031 " clip-rule="nonzero"/></clipPath><clipPath id="c440f0e9b5"><path d="M 282.425781 188.398438 L 334.960938 188.398438 L 334.960938 233.53125 L 282.425781 233.53125 Z M 282.425781 188.398438 " clip-rule="nonzero"/></clipPath><clipPath id="502a8c6271"><path d="M 334.941406 210.964844 L 321.8125 233.53125 L 295.554688 233.53125 L 282.425781 210.964844 L 295.554688 188.398438 L 321.8125 188.398438 Z M 334.941406 210.964844 " clip-rule="nonzero"/></clipPath><clipPath id="1a9dc23312"><path d="M 282.425781 188.398438 L 334.925781 188.398438 L 334.925781 233.398438 L 282.425781 233.398438 Z M 282.425781 188.398438 " clip-rule="nonzero"/></clipPath><clipPath id="7e172ca956"><path d="M 334.9375 210.964844 L 321.808594 233.527344 L 295.554688 233.527344 L 282.425781 210.964844 L 295.554688 188.398438 L 321.808594 188.398438 Z M 334.9375 210.964844 " clip-rule="nonzero"/></clipPath><clipPath id="260ed249a5"><path d="M 282.425781 142.359375 L 334.960938 142.359375 L 334.960938 187.492188 L 282.425781 187.492188 Z M 282.425781 142.359375 " clip-rule="nonzero"/></clipPath><clipPath id="927d76c43a"><path d="M 334.941406 164.925781 L 321.8125 187.492188 L 295.554688 187.492188 L 282.425781 164.925781 L 295.554688 142.359375 L 321.8125 142.359375 Z M 334.941406 164.925781 " clip-rule="nonzero"/></clipPath><clipPath id="92e058937c"><path d="M 282.425781 142.363281 L 334.925781 142.363281 L 334.925781 187.359375 L 282.425781 187.359375 Z M 282.425781 142.363281 " clip-rule="nonzero"/></clipPath><clipPath id="4740f25b72"><path d="M 334.9375 164.925781 L 321.808594 187.488281 L 295.554688 187.488281 L 282.425781 164.925781 L 295.554688 142.363281 L 321.808594 142.363281 Z M 334.9375 164.925781 " clip-rule="nonzero"/></clipPath><clipPath id="271eeb4de4"><path d="M 322.785156 165.371094 L 375 165.371094 L 375 210.5 L 322.785156 210.5 Z M 322.785156 165.371094 " clip-rule="nonzero"/></clipPath><clipPath id="138d4d7e85"><path d="M 375.300781 187.9375 L 362.171875 210.5 L 335.914062 210.5 L 322.785156 187.9375 L 335.914062 165.371094 L 362.171875 165.371094 Z M 375.300781 187.9375 " clip-rule="nonzero"/></clipPath><clipPath id="773d314757"><path d="M 322.785156 165.371094 L 375 165.371094 L 375 210.371094 L 322.785156 210.371094 Z M 322.785156 165.371094 " clip-rule="nonzero"/></clipPath><clipPath id="cc5cf97390"><path d="M 375.296875 187.933594 L 362.167969 210.5 L 335.910156 210.5 L 322.785156 187.933594 L 335.910156 165.371094 L 362.167969 165.371094 Z M 375.296875 187.933594 " clip-rule="nonzero"/></clipPath><clipPath id="3f6bef450c"><path d="M 322.785156 211.441406 L 375 211.441406 L 375 256.574219 L 322.785156 256.574219 Z M 322.785156 211.441406 " clip-rule="nonzero"/></clipPath><clipPath id="5637bfba32"><path d="M 375.300781 234.007812 L 362.171875 256.574219 L 335.914062 256.574219 L 322.785156 234.007812 L 335.914062 211.441406 L 362.171875 211.441406 Z M 375.300781 234.007812 " clip-rule="nonzero"/></clipPath><clipPath id="bc96b596e3"><path d="M 322.785156 211.445312 L 375 211.445312 L 375 256.441406 L 322.785156 256.441406 Z M 322.785156 211.445312 " clip-rule="nonzero"/></clipPath><clipPath id="fbfb5c0b61"><path d="M 375.296875 234.007812 L 362.167969 256.570312 L 335.910156 256.570312 L 322.785156 234.007812 L 335.910156 211.445312 L 362.167969 211.445312 Z M 375.296875 234.007812 " clip-rule="nonzero"/></clipPath><clipPath id="087566902e"><path d="M 282.425781 234.4375 L 334.960938 234.4375 L 334.960938 279.566406 L 282.425781 279.566406 Z M 282.425781 234.4375 " clip-rule="nonzero"/></clipPath><clipPath id="e61f0bba03"><path d="M 334.941406 257.003906 L 321.8125 279.566406 L 295.554688 279.566406 L 282.425781 257.003906 L 295.554688 234.4375 L 321.8125 234.4375 Z M 334.941406 257.003906 " clip-rule="nonzero"/></clipPath><clipPath id="8ef7a2fb9d"><path d="M 282.425781 234.4375 L 334.925781 234.4375 L 334.925781 279.4375 L 282.425781 279.4375 Z M 282.425781 234.4375 " clip-rule="nonzero"/></clipPath><clipPath id="115e5a6819"><path d="M 334.9375 257 L 321.808594 279.566406 L 295.554688 279.566406 L 282.425781 257 L 295.554688 234.4375 L 321.808594 234.4375 Z M 334.9375 257 " clip-rule="nonzero"/></clipPath><clipPath id="ead2933087"><path d="M 242.066406 165.371094 L 294.601562 165.371094 L 294.601562 210.5 L 242.066406 210.5 Z M 242.066406 165.371094 " clip-rule="nonzero"/></clipPath><clipPath id="5d3eb0e7a1"><path d="M 294.582031 187.9375 L 281.453125 210.5 L 255.195312 210.5 L 242.066406 187.9375 L 255.195312 165.371094 L 281.453125 165.371094 Z M 294.582031 187.9375 " clip-rule="nonzero"/></clipPath><clipPath id="3473fbd147"><path d="M 242.066406 165.371094 L 294.566406 165.371094 L 294.566406 210.371094 L 242.066406 210.371094 Z M 242.066406 165.371094 " clip-rule="nonzero"/></clipPath><clipPath id="da5e6e32b3"><path d="M 294.578125 187.933594 L 281.449219 210.5 L 255.195312 210.5 L 242.066406 187.933594 L 255.195312 165.371094 L 281.449219 165.371094 Z M 294.578125 187.933594 " clip-rule="nonzero"/></clipPath><clipPath id="3bcc12ddc7"><path d="M 242.066406 211.441406 L 294.601562 211.441406 L 294.601562 256.574219 L 242.066406 256.574219 Z M 242.066406 211.441406 " clip-rule="nonzero"/></clipPath><clipPath id="2c0285f0c6"><path d="M 294.582031 234.007812 L 281.453125 256.574219 L 255.195312 256.574219 L 242.066406 234.007812 L 255.195312 211.441406 L 281.453125 211.441406 Z M 294.582031 234.007812 " clip-rule="nonzero"/></clipPath><clipPath id="76e293014e"><path d="M 242.066406 211.445312 L 294.566406 211.445312 L 294.566406 256.441406 L 242.066406 256.441406 Z M 242.066406 211.445312 " clip-rule="nonzero"/></clipPath><clipPath id="8180a9c750"><path d="M 294.578125 234.007812 L 281.449219 256.570312 L 255.195312 256.570312 L 242.066406 234.007812 L 255.195312 211.445312 L 281.449219 211.445312 Z M 294.578125 234.007812 " clip-rule="nonzero"/></clipPath><clipPath id="70059ed048"><path d="M 120.988281 49.820312 L 173.527344 49.820312 L 173.527344 94.953125 L 120.988281 94.953125 Z M 120.988281 49.820312 " clip-rule="nonzero"/></clipPath><clipPath id="37020f1e1c"><path d="M 173.507812 72.386719 L 160.378906 94.953125 L 134.121094 94.953125 L 120.988281 72.386719 L 134.121094 49.820312 L 160.378906 49.820312 Z M 173.507812 72.386719 " clip-rule="nonzero"/></clipPath><clipPath id="a9f6809233"><path d="M 120.988281 49.824219 L 173.488281 49.824219 L 173.488281 94.820312 L 120.988281 94.820312 Z M 120.988281 49.824219 " clip-rule="nonzero"/></clipPath><clipPath id="eab76de3fa"><path d="M 173.5 72.386719 L 160.375 94.949219 L 134.117188 94.949219 L 120.988281 72.386719 L 134.117188 49.824219 L 160.375 49.824219 Z M 173.5 72.386719 " clip-rule="nonzero"/></clipPath><clipPath id="662a43ff4b"><path d="M 120.988281 3.785156 L 173.527344 3.785156 L 173.527344 48.914062 L 120.988281 48.914062 Z M 120.988281 3.785156 " clip-rule="nonzero"/></clipPath><clipPath id="843322b324"><path d="M 173.507812 26.347656 L 160.378906 48.914062 L 134.121094 48.914062 L 120.988281 26.347656 L 134.121094 3.785156 L 160.378906 3.785156 Z M 173.507812 26.347656 " clip-rule="nonzero"/></clipPath><clipPath id="32dca10ecf"><path d="M 120.988281 3.785156 L 173.488281 3.785156 L 173.488281 48.785156 L 120.988281 48.785156 Z M 120.988281 3.785156 " clip-rule="nonzero"/></clipPath><clipPath id="b972e57573"><path d="M 173.5 26.347656 L 160.375 48.910156 L 134.117188 48.910156 L 120.988281 26.347656 L 134.117188 3.785156 L 160.375 3.785156 Z M 173.5 26.347656 " clip-rule="nonzero"/></clipPath><clipPath id="af7b893cfa"><path d="M 161.347656 26.792969 L 213.882812 26.792969 L 213.882812 71.925781 L 161.347656 71.925781 Z M 161.347656 26.792969 " clip-rule="nonzero"/></clipPath><clipPath id="fb88e6e3ac"><path d="M 213.867188 49.359375 L 200.734375 71.925781 L 174.476562 71.925781 L 161.347656 49.359375 L 174.476562 26.792969 L 200.734375 26.792969 Z M 213.867188 49.359375 " clip-rule="nonzero"/></clipPath><clipPath id="35e78daf26"><path d="M 161.347656 26.792969 L 213.847656 26.792969 L 213.847656 71.792969 L 161.347656 71.792969 Z M 161.347656 26.792969 " clip-rule="nonzero"/></clipPath><clipPath id="6ea461c812"><path d="M 213.859375 49.359375 L 200.734375 71.921875 L 174.476562 71.921875 L 161.347656 49.359375 L 174.476562 26.792969 L 200.734375 26.792969 Z M 213.859375 49.359375 " clip-rule="nonzero"/></clipPath><clipPath id="e48c7bf3a6"><path d="M 161.347656 72.867188 L 213.882812 72.867188 L 213.882812 117.996094 L 161.347656 117.996094 Z M 161.347656 72.867188 " clip-rule="nonzero"/></clipPath><clipPath id="e91196dec0"><path d="M 213.867188 95.433594 L 200.734375 117.996094 L 174.476562 117.996094 L 161.347656 95.433594 L 174.476562 72.867188 L 200.734375 72.867188 Z M 213.867188 95.433594 " clip-rule="nonzero"/></clipPath><clipPath id="3577b8f4ff"><path d="M 161.347656 72.867188 L 213.847656 72.867188 L 213.847656 117.867188 L 161.347656 117.867188 Z M 161.347656 72.867188 " clip-rule="nonzero"/></clipPath><clipPath id="2f94050b0d"><path d="M 213.859375 95.429688 L 200.734375 117.996094 L 174.476562 117.996094 L 161.347656 95.429688 L 174.476562 72.867188 L 200.734375 72.867188 Z M 213.859375 95.429688 " clip-rule="nonzero"/></clipPath><clipPath id="8dfd84b9d8"><path d="M 120.988281 95.859375 L 173.527344 95.859375 L 173.527344 140.992188 L 120.988281 140.992188 Z M 120.988281 95.859375 " clip-rule="nonzero"/></clipPath><clipPath id="e0c2156d7f"><path d="M 173.507812 118.425781 L 160.378906 140.992188 L 134.121094 140.992188 L 120.988281 118.425781 L 134.121094 95.859375 L 160.378906 95.859375 Z M 173.507812 118.425781 " clip-rule="nonzero"/></clipPath><clipPath id="b23dc9fa03"><path d="M 120.988281 95.859375 L 173.488281 95.859375 L 173.488281 140.859375 L 120.988281 140.859375 Z M 120.988281 95.859375 " clip-rule="nonzero"/></clipPath><clipPath id="0b987653c1"><path d="M 173.5 118.425781 L 160.375 140.988281 L 134.117188 140.988281 L 120.988281 118.425781 L 134.117188 95.859375 L 160.375 95.859375 Z M 173.5 118.425781 " clip-rule="nonzero"/></clipPath><clipPath id="6c3982ccd2"><path d="M 80.632812 26.792969 L 133.167969 26.792969 L 133.167969 71.925781 L 80.632812 71.925781 Z M 80.632812 26.792969 " clip-rule="nonzero"/></clipPath><clipPath id="242204d2a1"><path d="M 133.148438 49.359375 L 120.019531 71.925781 L 93.761719 71.925781 L 80.632812 49.359375 L 93.761719 26.792969 L 120.019531 26.792969 Z M 133.148438 49.359375 " clip-rule="nonzero"/></clipPath><clipPath id="14c0f3673f"><path d="M 80.632812 26.792969 L 133.132812 26.792969 L 133.132812 71.792969 L 80.632812 71.792969 Z M 80.632812 26.792969 " clip-rule="nonzero"/></clipPath><clipPath id="0d14bca2fc"><path d="M 133.144531 49.359375 L 120.015625 71.921875 L 93.757812 71.921875 L 80.632812 49.359375 L 93.757812 26.792969 L 120.015625 26.792969 Z M 133.144531 49.359375 " clip-rule="nonzero"/></clipPath><clipPath id="8536a8f3bd"><path d="M 80.632812 72.867188 L 133.167969 72.867188 L 133.167969 117.996094 L 80.632812 117.996094 Z M 80.632812 72.867188 " clip-rule="nonzero"/></clipPath><clipPath id="1ca05e2da4"><path d="M 133.148438 95.433594 L 120.019531 117.996094 L 93.761719 117.996094 L 80.632812 95.433594 L 93.761719 72.867188 L 120.019531 72.867188 Z M 133.148438 95.433594 " clip-rule="nonzero"/></clipPath><clipPath id="17ae1926b5"><path d="M 80.632812 72.867188 L 133.132812 72.867188 L 133.132812 117.867188 L 80.632812 117.867188 Z M 80.632812 72.867188 " clip-rule="nonzero"/></clipPath><clipPath id="6a0c50561b"><path d="M 133.144531 95.429688 L 120.015625 117.996094 L 93.757812 117.996094 L 80.632812 95.429688 L 93.757812 72.867188 L 120.015625 72.867188 Z M 133.144531 95.429688 " clip-rule="nonzero"/></clipPath><clipPath id="31e97e061c"><path d="M 40.359375 141.898438 L 92.894531 141.898438 L 92.894531 187.03125 L 40.359375 187.03125 Z M 40.359375 141.898438 " clip-rule="nonzero"/></clipPath><clipPath id="ebe9e06390"><path d="M 92.875 164.464844 L 79.746094 187.03125 L 53.488281 187.03125 L 40.359375 164.464844 L 53.488281 141.898438 L 79.746094 141.898438 Z M 92.875 164.464844 " clip-rule="nonzero"/></clipPath><clipPath id="cd78c5b232"><path d="M 40.359375 141.898438 L 92.859375 141.898438 L 92.859375 186.898438 L 40.359375 186.898438 Z M 40.359375 141.898438 " clip-rule="nonzero"/></clipPath><clipPath id="a584f1d353"><path d="M 92.871094 164.460938 L 79.742188 187.027344 L 53.488281 187.027344 L 40.359375 164.460938 L 53.488281 141.898438 L 79.742188 141.898438 Z M 92.871094 164.460938 " clip-rule="nonzero"/></clipPath><clipPath id="9becdd73b3"><path d="M 40.359375 95.859375 L 92.894531 95.859375 L 92.894531 140.992188 L 40.359375 140.992188 Z M 40.359375 95.859375 " clip-rule="nonzero"/></clipPath><clipPath id="c10b2fbdf4"><path d="M 92.875 118.425781 L 79.746094 140.992188 L 53.488281 140.992188 L 40.359375 118.425781 L 53.488281 95.859375 L 79.746094 95.859375 Z M 92.875 118.425781 " clip-rule="nonzero"/></clipPath><clipPath id="c2beee6fb1"><path d="M 40.359375 95.859375 L 92.859375 95.859375 L 92.859375 140.859375 L 40.359375 140.859375 Z M 40.359375 95.859375 " clip-rule="nonzero"/></clipPath><clipPath id="735bf75826"><path d="M 92.871094 118.425781 L 79.742188 140.988281 L 53.488281 140.988281 L 40.359375 118.425781 L 53.488281 95.859375 L 79.742188 95.859375 Z M 92.871094 118.425781 " clip-rule="nonzero"/></clipPath><clipPath id="ea24a39a09"><path d="M 80.71875 118.871094 L 133.253906 118.871094 L 133.253906 164 L 80.71875 164 Z M 80.71875 118.871094 " clip-rule="nonzero"/></clipPath><clipPath id="1599fef139"><path d="M 133.234375 141.4375 L 120.105469 164 L 93.847656 164 L 80.71875 141.4375 L 93.847656 118.871094 L 120.105469 118.871094 Z M 133.234375 141.4375 " clip-rule="nonzero"/></clipPath><clipPath id="ca8b44f264"><path d="M 80.71875 118.871094 L 133.21875 118.871094 L 133.21875 163.871094 L 80.71875 163.871094 Z M 80.71875 118.871094 " clip-rule="nonzero"/></clipPath><clipPath id="b142bcf952"><path d="M 133.230469 141.433594 L 120.101562 164 L 93.84375 164 L 80.71875 141.433594 L 93.84375 118.871094 L 120.101562 118.871094 Z M 133.230469 141.433594 " clip-rule="nonzero"/></clipPath><clipPath id="32625607bb"><path d="M 80.71875 164.941406 L 133.253906 164.941406 L 133.253906 210.074219 L 80.71875 210.074219 Z M 80.71875 164.941406 " clip-rule="nonzero"/></clipPath><clipPath id="92e6fb3b11"><path d="M 133.234375 187.507812 L 120.105469 210.074219 L 93.847656 210.074219 L 80.71875 187.507812 L 93.847656 164.941406 L 120.105469 164.941406 Z M 133.234375 187.507812 " clip-rule="nonzero"/></clipPath><clipPath id="76ae50a959"><path d="M 80.71875 164.945312 L 133.21875 164.945312 L 133.21875 209.941406 L 80.71875 209.941406 Z M 80.71875 164.945312 " clip-rule="nonzero"/></clipPath><clipPath id="f6374801cd"><path d="M 133.230469 187.507812 L 120.101562 210.070312 L 93.84375 210.070312 L 80.71875 187.507812 L 93.84375 164.945312 L 120.101562 164.945312 Z M 133.230469 187.507812 " clip-rule="nonzero"/></clipPath><clipPath id="c438d63952"><path d="M 40.359375 187.9375 L 92.894531 187.9375 L 92.894531 233.066406 L 40.359375 233.066406 Z M 40.359375 187.9375 " clip-rule="nonzero"/></clipPath><clipPath id="7d7abbf99f"><path d="M 92.875 210.5 L 79.746094 233.066406 L 53.488281 233.066406 L 40.359375 210.5 L 53.488281 187.9375 L 79.746094 187.9375 Z M 92.875 210.5 " clip-rule="nonzero"/></clipPath><clipPath id="bb3ac9adfd"><path d="M 40.359375 187.9375 L 92.859375 187.9375 L 92.859375 232.9375 L 40.359375 232.9375 Z M 40.359375 187.9375 " clip-rule="nonzero"/></clipPath><clipPath id="e9a1ddedd8"><path d="M 92.871094 210.5 L 79.742188 233.0625 L 53.488281 233.0625 L 40.359375 210.5 L 53.488281 187.9375 L 79.742188 187.9375 Z M 92.871094 210.5 " clip-rule="nonzero"/></clipPath><clipPath id="e34a7334df"><path d="M 0 118.871094 L 52.535156 118.871094 L 52.535156 164 L 0 164 Z M 0 118.871094 " clip-rule="nonzero"/></clipPath><clipPath id="c8a161cd22"><path d="M 52.515625 141.4375 L 39.386719 164 L 13.128906 164 L 0 141.4375 L 13.128906 118.871094 L 39.386719 118.871094 Z M 52.515625 141.4375 " clip-rule="nonzero"/></clipPath><clipPath id="4c3ca561c0"><path d="M 0 118.871094 L 52.5 118.871094 L 52.5 163.871094 L 0 163.871094 Z M 0 118.871094 " clip-rule="nonzero"/></clipPath><clipPath id="a226d2e502"><path d="M 52.511719 141.433594 L 39.382812 164 L 13.128906 164 L 0 141.433594 L 13.128906 118.871094 L 39.382812 118.871094 Z M 52.511719 141.433594 " clip-rule="nonzero"/></clipPath><clipPath id="574fec9b3c"><path d="M 0 164.941406 L 52.535156 164.941406 L 52.535156 210.074219 L 0 210.074219 Z M 0 164.941406 " clip-rule="nonzero"/></clipPath><clipPath id="4a095dc526"><path d="M 52.515625 187.507812 L 39.386719 210.074219 L 13.128906 210.074219 L 0 187.507812 L 13.128906 164.941406 L 39.386719 164.941406 Z M 52.515625 187.507812 " clip-rule="nonzero"/></clipPath><clipPath id="16c458d424"><path d="M 0 164.945312 L 52.5 164.945312 L 52.5 209.941406 L 0 209.941406 Z M 0 164.945312 " clip-rule="nonzero"/></clipPath><clipPath id="a39c04535b"><path d="M 52.511719 187.507812 L 39.382812 210.070312 L 13.128906 210.070312 L 0 187.507812 L 13.128906 164.945312 L 39.382812 164.945312 Z M 52.511719 187.507812 " clip-rule="nonzero"/></clipPath><clipPath id="816acf1a42"><path d="M 80.632812 257.480469 L 133.167969 257.480469 L 133.167969 302.613281 L 80.632812 302.613281 Z M 80.632812 257.480469 " clip-rule="nonzero"/></clipPath><clipPath id="ad8133ab4e"><path d="M 133.148438 280.046875 L 120.019531 302.613281 L 93.761719 302.613281 L 80.632812 280.046875 L 93.761719 257.480469 L 120.019531 257.480469 Z M 133.148438 280.046875 " clip-rule="nonzero"/></clipPath><clipPath id="5e442c026f"><path d="M 80.632812 257.480469 L 133.132812 257.480469 L 133.132812 302.480469 L 80.632812 302.480469 Z M 80.632812 257.480469 " clip-rule="nonzero"/></clipPath><clipPath id="a00da78b50"><path d="M 133.144531 280.046875 L 120.015625 302.609375 L 93.757812 302.609375 L 80.632812 280.046875 L 93.757812 257.480469 L 120.015625 257.480469 Z M 133.144531 280.046875 " clip-rule="nonzero"/></clipPath><clipPath id="699fdb3f7c"><path d="M 80.632812 211.441406 L 133.167969 211.441406 L 133.167969 256.574219 L 80.632812 256.574219 Z M 80.632812 211.441406 " clip-rule="nonzero"/></clipPath><clipPath id="f0ba683d89"><path d="M 133.148438 234.007812 L 120.019531 256.574219 L 93.761719 256.574219 L 80.632812 234.007812 L 93.761719 211.441406 L 120.019531 211.441406 Z M 133.148438 234.007812 " clip-rule="nonzero"/></clipPath><clipPath id="6db8f471ea"><path d="M 80.632812 211.445312 L 133.132812 211.445312 L 133.132812 256.441406 L 80.632812 256.441406 Z M 80.632812 211.445312 " clip-rule="nonzero"/></clipPath><clipPath id="cdc28321a3"><path d="M 133.144531 234.007812 L 120.015625 256.570312 L 93.757812 256.570312 L 80.632812 234.007812 L 93.757812 211.445312 L 120.015625 211.445312 Z M 133.144531 234.007812 " clip-rule="nonzero"/></clipPath><clipPath id="32d44d0b07"><path d="M 120.988281 234.453125 L 173.527344 234.453125 L 173.527344 279.585938 L 120.988281 279.585938 Z M 120.988281 234.453125 " clip-rule="nonzero"/></clipPath><clipPath id="b231ff105a"><path d="M 173.507812 257.019531 L 160.378906 279.585938 L 134.121094 279.585938 L 120.988281 257.019531 L 134.121094 234.453125 L 160.378906 234.453125 Z M 173.507812 257.019531 " clip-rule="nonzero"/></clipPath><clipPath id="b772682cbb"><path d="M 120.988281 234.453125 L 173.488281 234.453125 L 173.488281 279.453125 L 120.988281 279.453125 Z M 120.988281 234.453125 " clip-rule="nonzero"/></clipPath><clipPath id="82d3304926"><path d="M 173.5 257.019531 L 160.375 279.582031 L 134.117188 279.582031 L 120.988281 257.019531 L 134.117188 234.453125 L 160.375 234.453125 Z M 173.5 257.019531 " clip-rule="nonzero"/></clipPath><clipPath id="a4d8ff08e7"><path d="M 120.988281 280.527344 L 173.527344 280.527344 L 173.527344 325.65625 L 120.988281 325.65625 Z M 120.988281 280.527344 " clip-rule="nonzero"/></clipPath><clipPath id="c68960a34d"><path d="M 173.507812 303.089844 L 160.378906 325.65625 L 134.121094 325.65625 L 120.988281 303.089844 L 134.121094 280.527344 L 160.378906 280.527344 Z M 173.507812 303.089844 " clip-rule="nonzero"/></clipPath><clipPath id="eff6178168"><path d="M 120.988281 280.527344 L 173.488281 280.527344 L 173.488281 325.527344 L 120.988281 325.527344 Z M 120.988281 280.527344 " clip-rule="nonzero"/></clipPath><clipPath id="826ceb8674"><path d="M 173.5 303.089844 L 160.375 325.652344 L 134.117188 325.652344 L 120.988281 303.089844 L 134.117188 280.527344 L 160.375 280.527344 Z M 173.5 303.089844 " clip-rule="nonzero"/></clipPath><clipPath id="a54a041299"><path d="M 80.632812 303.519531 L 133.167969 303.519531 L 133.167969 348.652344 L 80.632812 348.652344 Z M 80.632812 303.519531 " clip-rule="nonzero"/></clipPath><clipPath id="17645094a4"><path d="M 133.148438 326.085938 L 120.019531 348.652344 L 93.761719 348.652344 L 80.632812 326.085938 L 93.761719 303.519531 L 120.019531 303.519531 Z M 133.148438 326.085938 " clip-rule="nonzero"/></clipPath><clipPath id="174ec0c2b6"><path d="M 80.632812 303.519531 L 133.132812 303.519531 L 133.132812 348.519531 L 80.632812 348.519531 Z M 80.632812 303.519531 " clip-rule="nonzero"/></clipPath><clipPath id="fbcb6215eb"><path d="M 133.144531 326.082031 L 120.015625 348.648438 L 93.757812 348.648438 L 80.632812 326.082031 L 93.757812 303.519531 L 120.015625 303.519531 Z M 133.144531 326.082031 " clip-rule="nonzero"/></clipPath><clipPath id="ec5dd64162"><path d="M 40.273438 234.453125 L 92.808594 234.453125 L 92.808594 279.585938 L 40.273438 279.585938 Z M 40.273438 234.453125 " clip-rule="nonzero"/></clipPath><clipPath id="e091671aeb"><path d="M 92.789062 257.019531 L 79.660156 279.585938 L 53.402344 279.585938 L 40.273438 257.019531 L 53.402344 234.453125 L 79.660156 234.453125 Z M 92.789062 257.019531 " clip-rule="nonzero"/></clipPath><clipPath id="dacc19ee04"><path d="M 40.273438 234.453125 L 92.773438 234.453125 L 92.773438 279.453125 L 40.273438 279.453125 Z M 40.273438 234.453125 " clip-rule="nonzero"/></clipPath><clipPath id="9d9615f44a"><path d="M 92.785156 257.019531 L 79.65625 279.582031 L 53.402344 279.582031 L 40.273438 257.019531 L 53.402344 234.453125 L 79.65625 234.453125 Z M 92.785156 257.019531 " clip-rule="nonzero"/></clipPath><clipPath id="39022f6462"><path d="M 40.273438 280.527344 L 92.808594 280.527344 L 92.808594 325.65625 L 40.273438 325.65625 Z M 40.273438 280.527344 " clip-rule="nonzero"/></clipPath><clipPath id="a5caeea704"><path d="M 92.789062 303.089844 L 79.660156 325.65625 L 53.402344 325.65625 L 40.273438 303.089844 L 53.402344 280.527344 L 79.660156 280.527344 Z M 92.789062 303.089844 " clip-rule="nonzero"/></clipPath><clipPath id="4379efc0e2"><path d="M 40.273438 280.527344 L 92.773438 280.527344 L 92.773438 325.527344 L 40.273438 325.527344 Z M 40.273438 280.527344 " clip-rule="nonzero"/></clipPath><clipPath id="9d4bb5f399"><path d="M 92.785156 303.089844 L 79.65625 325.652344 L 53.402344 325.652344 L 40.273438 303.089844 L 53.402344 280.527344 L 79.65625 280.527344 Z M 92.785156 303.089844 " clip-rule="nonzero"/></clipPath><clipPath id="9f7f52d7cb"><path d="M 201.707031 280.046875 L 254.242188 280.046875 L 254.242188 325.179688 L 201.707031 325.179688 Z M 201.707031 280.046875 " clip-rule="nonzero"/></clipPath><clipPath id="21a7723310"><path d="M 254.222656 302.613281 L 241.09375 325.179688 L 214.835938 325.179688 L 201.707031 302.613281 L 214.835938 280.046875 L 241.09375 280.046875 Z M 254.222656 302.613281 " clip-rule="nonzero"/></clipPath><clipPath id="4a07d4f2f2"><path d="M 201.707031 280.046875 L 254.207031 280.046875 L 254.207031 325.046875 L 201.707031 325.046875 Z M 201.707031 280.046875 " clip-rule="nonzero"/></clipPath><clipPath id="38b7c5ada0"><path d="M 254.21875 302.613281 L 241.089844 325.175781 L 214.835938 325.175781 L 201.707031 302.613281 L 214.835938 280.046875 L 241.089844 280.046875 Z M 254.21875 302.613281 " clip-rule="nonzero"/></clipPath><clipPath id="2a94ef6765"><path d="M 201.707031 234.007812 L 254.242188 234.007812 L 254.242188 279.140625 L 201.707031 279.140625 Z M 201.707031 234.007812 " clip-rule="nonzero"/></clipPath><clipPath id="1e0b918e2c"><path d="M 254.222656 256.574219 L 241.09375 279.140625 L 214.835938 279.140625 L 201.707031 256.574219 L 214.835938 234.007812 L 241.09375 234.007812 Z M 254.222656 256.574219 " clip-rule="nonzero"/></clipPath><clipPath id="35539feda4"><path d="M 201.707031 234.007812 L 254.207031 234.007812 L 254.207031 279.007812 L 201.707031 279.007812 Z M 201.707031 234.007812 " clip-rule="nonzero"/></clipPath><clipPath id="01b354acb3"><path d="M 254.21875 256.574219 L 241.089844 279.136719 L 214.835938 279.136719 L 201.707031 256.574219 L 214.835938 234.007812 L 241.089844 234.007812 Z M 254.21875 256.574219 " clip-rule="nonzero"/></clipPath><clipPath id="187f51f866"><path d="M 242.066406 257.019531 L 294.601562 257.019531 L 294.601562 302.148438 L 242.066406 302.148438 Z M 242.066406 257.019531 " clip-rule="nonzero"/></clipPath><clipPath id="bc5ed8293d"><path d="M 294.582031 279.585938 L 281.453125 302.148438 L 255.195312 302.148438 L 242.066406 279.585938 L 255.195312 257.019531 L 281.453125 257.019531 Z M 294.582031 279.585938 " clip-rule="nonzero"/></clipPath><clipPath id="7a9b6bb67e"><path d="M 242.066406 257.019531 L 294.566406 257.019531 L 294.566406 302.019531 L 242.066406 302.019531 Z M 242.066406 257.019531 " clip-rule="nonzero"/></clipPath><clipPath id="e2a98379a1"><path d="M 294.578125 279.582031 L 281.449219 302.148438 L 255.195312 302.148438 L 242.066406 279.582031 L 255.195312 257.019531 L 281.449219 257.019531 Z M 294.578125 279.582031 " clip-rule="nonzero"/></clipPath><clipPath id="c0fbbacd09"><path d="M 242.066406 303.089844 L 294.601562 303.089844 L 294.601562 348.222656 L 242.066406 348.222656 Z M 242.066406 303.089844 " clip-rule="nonzero"/></clipPath><clipPath id="afca1dd183"><path d="M 294.582031 325.65625 L 281.453125 348.222656 L 255.195312 348.222656 L 242.066406 325.65625 L 255.195312 303.089844 L 281.453125 303.089844 Z M 294.582031 325.65625 " clip-rule="nonzero"/></clipPath><clipPath id="a150f6fb81"><path d="M 242.066406 303.09375 L 294.566406 303.09375 L 294.566406 348.089844 L 242.066406 348.089844 Z M 242.066406 303.09375 " clip-rule="nonzero"/></clipPath><clipPath id="32ae4ac207"><path d="M 294.578125 325.65625 L 281.449219 348.21875 L 255.195312 348.21875 L 242.066406 325.65625 L 255.195312 303.09375 L 281.449219 303.09375 Z M 294.578125 325.65625 " clip-rule="nonzero"/></clipPath><clipPath id="c997e240f4"><path d="M 201.707031 326.085938 L 254.242188 326.085938 L 254.242188 371.214844 L 201.707031 371.214844 Z M 201.707031 326.085938 " clip-rule="nonzero"/></clipPath><clipPath id="cf3811d4be"><path d="M 254.222656 348.652344 L 241.09375 371.214844 L 214.835938 371.214844 L 201.707031 348.652344 L 214.835938 326.085938 L 241.09375 326.085938 Z M 254.222656 348.652344 " clip-rule="nonzero"/></clipPath><clipPath id="c6807fa6a2"><path d="M 201.707031 326.085938 L 254.207031 326.085938 L 254.207031 371.085938 L 201.707031 371.085938 Z M 201.707031 326.085938 " clip-rule="nonzero"/></clipPath><clipPath id="e6147207c9"><path d="M 254.21875 348.648438 L 241.089844 371.214844 L 214.835938 371.214844 L 201.707031 348.648438 L 214.835938 326.085938 L 241.089844 326.085938 Z M 254.21875 348.648438 " clip-rule="nonzero"/></clipPath><clipPath id="493e9ce666"><path d="M 161.347656 257.019531 L 213.882812 257.019531 L 213.882812 302.148438 L 161.347656 302.148438 Z M 161.347656 257.019531 " clip-rule="nonzero"/></clipPath><clipPath id="3b51b224cb"><path d="M 213.867188 279.585938 L 200.734375 302.148438 L 174.476562 302.148438 L 161.347656 279.585938 L 174.476562 257.019531 L 200.734375 257.019531 Z M 213.867188 279.585938 " clip-rule="nonzero"/></clipPath><clipPath id="e91e8954fc"><path d="M 161.347656 257.019531 L 213.847656 257.019531 L 213.847656 302.019531 L 161.347656 302.019531 Z M 161.347656 257.019531 " clip-rule="nonzero"/></clipPath><clipPath id="9c43f0706c"><path d="M 213.859375 279.582031 L 200.734375 302.148438 L 174.476562 302.148438 L 161.347656 279.582031 L 174.476562 257.019531 L 200.734375 257.019531 Z M 213.859375 279.582031 " clip-rule="nonzero"/></clipPath><clipPath id="7d26a3d228"><path d="M 161.347656 303.089844 L 213.882812 303.089844 L 213.882812 348.222656 L 161.347656 348.222656 Z M 161.347656 303.089844 " clip-rule="nonzero"/></clipPath><clipPath id="59bf2fb24c"><path d="M 213.867188 325.65625 L 200.734375 348.222656 L 174.476562 348.222656 L 161.347656 325.65625 L 174.476562 303.089844 L 200.734375 303.089844 Z M 213.867188 325.65625 " clip-rule="nonzero"/></clipPath><clipPath id="298dbea33e"><path d="M 161.347656 303.09375 L 213.847656 303.09375 L 213.847656 348.089844 L 161.347656 348.089844 Z M 161.347656 303.09375 " clip-rule="nonzero"/></clipPath><clipPath id="933948bd9b"><path d="M 213.859375 325.65625 L 200.734375 348.21875 L 174.476562 348.21875 L 161.347656 325.65625 L 174.476562 303.09375 L 200.734375 303.09375 Z M 213.859375 325.65625 " clip-rule="nonzero"/></clipPath><clipPath id="ccf6fb0ed2"><path d="M 142.785156 3.039062 L 368 3.039062 L 368 194.636719 L 142.785156 194.636719 Z M 142.785156 3.039062 " clip-rule="nonzero"/></clipPath><clipPath id="5b9bbb95cf"><path d="M 292.210938 3.785156 L 218.570312 3.785156 C 176.714844 3.785156 142.785156 36.929688 142.785156 77.8125 C 142.785156 107.414062 160.574219 132.945312 186.269531 144.789062 L 186.269531 194.636719 L 237.742188 151.84375 L 292.210938 151.84375 C 334.195312 151.84375 368.125 118.695312 368.125 77.8125 C 368.128906 36.929688 334.195312 3.785156 292.210938 3.785156 Z M 292.210938 3.785156 " clip-rule="nonzero"/></clipPath><clipPath id="962e5897c1"><path d="M 142.785156 3.789062 L 367.785156 3.789062 L 367.785156 194.285156 L 142.785156 194.285156 Z M 142.785156 3.789062 " clip-rule="nonzero"/></clipPath><clipPath id="2ab8455fb0"><path d="M 292.207031 3.789062 L 218.566406 3.789062 C 176.710938 3.789062 142.785156 36.929688 142.785156 77.816406 C 142.785156 107.414062 160.570312 132.941406 186.269531 144.789062 L 186.269531 194.632812 L 237.738281 151.839844 L 292.207031 151.839844 C 334.1875 151.839844 368.113281 118.695312 368.113281 77.8125 C 368.117188 36.929688 334.1875 3.789062 292.207031 3.789062 Z M 292.207031 3.789062 " clip-rule="nonzero"/></clipPath></defs><g clip-path="url(#0f8818623a)"><g clip-path="url(#dffc3bad71)"><path fill="#ffffff" d="M 161.347656 164.925781 L 213.882812 164.925781 L 213.882812 210.058594 L 161.347656 210.058594 Z M 161.347656 164.925781 " fill-opacity="1" fill-rule="nonzero"/></g></g><g clip-path="url(#2510c11124)"><g clip-path="url(#3ed742ea99)"><path stroke-linecap="butt" transform="matrix(0.75, 0, 0, 0.75, 161.348944, 164.926996)" fill="none" stroke-linejoin="miter" d="M 70.013913 30.086925 L 52.513912 60.17026 L 17.503493 60.17026 L -0.00171634 30.086925 L 17.503493 -0.00161909 L 52.513912 -0.00161909 Z M 70.013913 30.086925 " stroke="#000000" stroke-width="14" stroke-opacity="1" stroke-miterlimit="4"/></g></g><g clip-path="url(#6407e00bec)"><g clip-path="url(#dd8e88e079)"><path fill="#ffde59" d="M 161.347656 118.886719 L 213.882812 118.886719 L 213.882812 164.019531 L 161.347656 164.019531 Z M 161.347656 118.886719 " fill-opacity="1" fill-rule="nonzero"/></g></g><g clip-path="url(#dca1169fc0)"><g clip-path="url(#f4198edd7a)"><path stroke-linecap="butt" transform="matrix(0.75, 0, 0, 0.75, 161.348944, 118.888835)" fill="none" stroke-linejoin="miter" d="M 70.013913 30.085721 L 52.513912 60.169057 L 17.503493 60.169057 L -0.00171634 30.085721 L 17.503493 0.00238614 L 52.513912 0.00238614 Z M 70.013913 30.085721 " stroke="#000000" stroke-width="14" stroke-opacity="1" stroke-miterlimit="4"/></g></g><g clip-path="url(#5b3a7fbe70)"><g clip-path="url(#7617eb5f1b)"><path fill="#545454" d="M 201.707031 141.898438 L 254.242188 141.898438 L 254.242188 187.03125 L 201.707031 187.03125 Z M 201.707031 141.898438 " fill-opacity="1" fill-rule="nonzero"/></g></g><g clip-path="url(#9612a43f0b)"><g clip-path="url(#158ac10c9b)"><path stroke-linecap="butt" transform="matrix(0.75, 0, 0, 0.75, 201.707715, 141.898951)" fill="none" stroke-linejoin="miter" d="M 70.014718 30.08265 L 52.509508 60.171194 L 17.504297 60.171194 L -0.000912006 30.08265 L 17.504297 -0.000685309 L 52.509508 -0.000685309 Z M 70.014718 30.08265 " stroke="#000000" stroke-width="14" stroke-opacity="1" stroke-miterlimit="4"/></g></g><g clip-path="url(#cc07ac13be)"><g clip-path="url(#95256b4abd)"><path fill="#545454" d="M 201.707031 187.96875 L 254.242188 187.96875 L 254.242188 233.101562 L 201.707031 233.101562 Z M 201.707031 187.96875 " fill-opacity="1" fill-rule="nonzero"/></g></g><g clip-path="url(#95c82874b7)"><g clip-path="url(#84b5725e9d)"><path stroke-linecap="butt" transform="matrix(0.75, 0, 0, 0.75, 201.707715, 187.971434)" fill="none" stroke-linejoin="miter" d="M 70.014718 30.084965 L 52.509508 60.1683 L 17.504297 60.1683 L -0.000912006 30.084965 L 17.504297 0.00162959 L 52.509508 0.00162959 Z M 70.014718 30.084965 " stroke="#000000" stroke-width="14" stroke-opacity="1" stroke-miterlimit="4"/></g></g><g clip-path="url(#a11eeffabd)"><g clip-path="url(#f4c77ecb4e)"><path fill="#ffde59" d="M 161.347656 210.964844 L 213.882812 210.964844 L 213.882812 256.09375 L 161.347656 256.09375 Z M 161.347656 210.964844 " fill-opacity="1" fill-rule="nonzero"/></g></g><g clip-path="url(#5cdafaba87)"><g clip-path="url(#4ed3548d83)"><path stroke-linecap="butt" transform="matrix(0.75, 0, 0, 0.75, 161.348944, 210.965158)" fill="none" stroke-linejoin="miter" d="M 70.013913 30.082916 L 52.513912 60.17146 L 17.503493 60.17146 L -0.00171634 30.082916 L 17.503493 -0.000419196 L 52.513912 -0.000419196 Z M 70.013913 30.082916 " stroke="#000000" stroke-width="14" stroke-opacity="1" stroke-miterlimit="4"/></g></g><g clip-path="url(#e09d969ebc)"><g clip-path="url(#2239085679)"><path fill="#ffffff" d="M 120.988281 141.898438 L 173.527344 141.898438 L 173.527344 187.03125 L 120.988281 187.03125 Z M 120.988281 141.898438 " fill-opacity="1" fill-rule="nonzero"/></g></g><g clip-path="url(#0854fc6a66)"><g clip-path="url(#f816d06fdc)"><path stroke-linecap="butt" transform="matrix(0.75, 0, 0, 0.75, 120.990193, 141.898951)" fill="none" stroke-linejoin="miter" d="M 70.01308 30.08265 L 52.513079 60.171194 L 17.50266 60.171194 L -0.00254947 30.08265 L 17.50266 -0.000685309 L 52.513079 -0.000685309 Z M 70.01308 30.08265 " stroke="#000000" stroke-width="14" stroke-opacity="1" stroke-miterlimit="4"/></g></g><g clip-path="url(#2c3ecb166d)"><g clip-path="url(#a45924d2f7)"><path fill="#545454" d="M 120.988281 187.96875 L 173.527344 187.96875 L 173.527344 233.101562 L 120.988281 233.101562 Z M 120.988281 187.96875 " fill-opacity="1" fill-rule="nonzero"/></g></g><g clip-path="url(#cc5d3552cb)"><g clip-path="url(#cbaef444af)"><path stroke-linecap="butt" transform="matrix(0.75, 0, 0, 0.75, 120.990193, 187.971434)" fill="none" stroke-linejoin="miter" d="M 70.01308 30.084965 L 52.513079 60.1683 L 17.50266 60.1683 L -0.00254947 30.084965 L 17.50266 0.00162959 L 52.513079 0.00162959 Z M 70.01308 30.084965 " stroke="#000000" stroke-width="14" stroke-opacity="1" stroke-miterlimit="4"/></g></g><g clip-path="url(#b549494d4d)"><g clip-path="url(#cee8ae85bc)"><path fill="#ffffff" d="M 242.066406 72.851562 L 294.601562 72.851562 L 294.601562 117.980469 L 242.066406 117.980469 Z M 242.066406 72.851562 " fill-opacity="1" fill-rule="nonzero"/></g></g><g clip-path="url(#77193b2938)"><g clip-path="url(#0a6be331ff)"><path stroke-linecap="butt" transform="matrix(0.75, 0, 0, 0.75, 242.066473, 72.850673)" fill="none" stroke-linejoin="miter" d="M 70.015541 30.084522 L 52.510332 60.167857 L 17.505121 60.167857 L -0.0000884724 30.084522 L 17.505121 0.00118625 L 52.510332 0.00118625 Z M 70.015541 30.084522 " stroke="#000000" stroke-width="14" stroke-opacity="1" stroke-miterlimit="4"/></g></g><g clip-path="url(#a6a3806dc2)"><g clip-path="url(#2fd9c6c5d7)"><path fill="#ffffff" d="M 242.066406 26.8125 L 294.601562 26.8125 L 294.601562 71.941406 L 242.066406 71.941406 Z M 242.066406 26.8125 " fill-opacity="1" fill-rule="nonzero"/></g></g><g clip-path="url(#c28c28bbd1)"><g clip-path="url(#49b79c1c2d)"><path stroke-linecap="butt" transform="matrix(0.75, 0, 0, 0.75, 242.066473, 26.812504)" fill="none" stroke-linejoin="miter" d="M 70.015541 30.08333 L 52.510332 60.171874 L 17.505121 60.171874 L -0.0000884724 30.08333 L 17.505121 -0.00000501242 L 52.510332 -0.00000501242 Z M 70.015541 30.08333 " stroke="#000000" stroke-width="14" stroke-opacity="1" stroke-miterlimit="4"/></g></g><g clip-path="url(#78b70c18a2)"><g clip-path="url(#78c8e00fa9)"><path fill="#ffffff" d="M 282.425781 49.820312 L 334.960938 49.820312 L 334.960938 94.953125 L 282.425781 94.953125 Z M 282.425781 49.820312 " fill-opacity="1" fill-rule="nonzero"/></g></g><g clip-path="url(#b2563f0e41)"><g clip-path="url(#dcc26d24a2)"><path stroke-linecap="butt" transform="matrix(0.75, 0, 0, 0.75, 282.425259, 49.822636)" fill="none" stroke-linejoin="miter" d="M 70.016326 30.085446 L 52.511117 60.168781 L 17.505906 60.168781 L 0.000696661 30.085446 L 17.505906 0.00211043 L 52.511117 0.00211043 Z M 70.016326 30.085446 " stroke="#000000" stroke-width="14" stroke-opacity="1" stroke-miterlimit="4"/></g></g><g clip-path="url(#02cd307709)"><g clip-path="url(#5c9097a1fb)"><path fill="#ffffff" d="M 282.425781 95.894531 L 334.960938 95.894531 L 334.960938 141.027344 L 282.425781 141.027344 Z M 282.425781 95.894531 " fill-opacity="1" fill-rule="nonzero"/></g></g><g clip-path="url(#da02ca3e7c)"><g clip-path="url(#dfe73d80e2)"><path stroke-linecap="butt" transform="matrix(0.75, 0, 0, 0.75, 282.425259, 95.895111)" fill="none" stroke-linejoin="miter" d="M 70.016326 30.082562 L 52.511117 60.171106 L 17.505906 60.171106 L 0.000696661 30.082562 L 17.505906 -0.000773404 L 52.511117 -0.000773404 Z M 70.016326 30.082562 " stroke="#000000" stroke-width="14" stroke-opacity="1" stroke-miterlimit="4"/></g></g><g clip-path="url(#6855a7eced)"><g clip-path="url(#76fe2df5fa)"><path fill="#545454" d="M 242.066406 118.886719 L 294.601562 118.886719 L 294.601562 164.019531 L 242.066406 164.019531 Z M 242.066406 118.886719 " fill-opacity="1" fill-rule="nonzero"/></g></g><g clip-path="url(#b54196bc23)"><g clip-path="url(#34ca991da0)"><path stroke-linecap="butt" transform="matrix(0.75, 0, 0, 0.75, 242.066473, 118.888835)" fill="none" stroke-linejoin="miter" d="M 70.015541 30.085721 L 52.510332 60.169057 L 17.505121 60.169057 L -0.0000884724 30.085721 L 17.505121 0.00238614 L 52.510332 0.00238614 Z M 70.015541 30.085721 " stroke="#000000" stroke-width="14" stroke-opacity="1" stroke-miterlimit="4"/></g></g><g clip-path="url(#cedee34d38)"><g clip-path="url(#42826deec0)"><path fill="#ffffff" d="M 201.707031 49.820312 L 254.242188 49.820312 L 254.242188 94.953125 L 201.707031 94.953125 Z M 201.707031 49.820312 " fill-opacity="1" fill-rule="nonzero"/></g></g><g clip-path="url(#6fafd6b22f)"><g clip-path="url(#cadb369166)"><path stroke-linecap="butt" transform="matrix(0.75, 0, 0, 0.75, 201.707715, 49.822636)" fill="none" stroke-linejoin="miter" d="M 70.014718 30.085446 L 52.509508 60.168781 L 17.504297 60.168781 L -0.000912006 30.085446 L 17.504297 0.00211043 L 52.509508 0.00211043 Z M 70.014718 30.085446 " stroke="#000000" stroke-width="14" stroke-opacity="1" stroke-miterlimit="4"/></g></g><g clip-path="url(#978960866a)"><g clip-path="url(#5667013fdc)"><path fill="#ffffff" d="M 201.707031 95.894531 L 254.242188 95.894531 L 254.242188 141.027344 L 201.707031 141.027344 Z M 201.707031 95.894531 " fill-opacity="1" fill-rule="nonzero"/></g></g><g clip-path="url(#c95e699c25)"><g clip-path="url(#5eb7bc2d7a)"><path stroke-linecap="butt" transform="matrix(0.75, 0, 0, 0.75, 201.707715, 95.895111)" fill="none" stroke-linejoin="miter" d="M 70.014718 30.082562 L 52.509508 60.171106 L 17.504297 60.171106 L -0.000912006 30.082562 L 17.504297 -0.000773404 L 52.509508 -0.000773404 Z M 70.014718 30.082562 " stroke="#000000" stroke-width="14" stroke-opacity="1" stroke-miterlimit="4"/></g></g><g clip-path="url(#c440f0e9b5)"><g clip-path="url(#502a8c6271)"><path fill="#545454" d="M 282.425781 188.398438 L 334.960938 188.398438 L 334.960938 233.53125 L 282.425781 233.53125 Z M 282.425781 188.398438 " fill-opacity="1" fill-rule="nonzero"/></g></g><g clip-path="url(#1a9dc23312)"><g clip-path="url(#7e172ca956)"><path stroke-linecap="butt" transform="matrix(0.75, 0, 0, 0.75, 282.425259, 188.399548)" fill="none" stroke-linejoin="miter" d="M 70.016326 30.087062 L 52.511117 60.170398 L 17.505906 60.170398 L 0.000696661 30.087062 L 17.505906 -0.00148124 L 52.511117 -0.00148124 Z M 70.016326 30.087062 " stroke="#000000" stroke-width="14" stroke-opacity="1" stroke-miterlimit="4"/></g></g><g clip-path="url(#260ed249a5)"><g clip-path="url(#927d76c43a)"><path fill="#ffffff" d="M 282.425781 142.359375 L 334.960938 142.359375 L 334.960938 187.492188 L 282.425781 187.492188 Z M 282.425781 142.359375 " fill-opacity="1" fill-rule="nonzero"/></g></g><g clip-path="url(#92e058937c)"><g clip-path="url(#4740f25b72)"><path stroke-linecap="butt" transform="matrix(0.75, 0, 0, 0.75, 282.425259, 142.361371)" fill="none" stroke-linejoin="miter" d="M 70.016326 30.085882 L 52.511117 60.169217 L 17.505906 60.169217 L 0.000696661 30.085882 L 17.505906 0.0025464 L 52.511117 0.0025464 Z M 70.016326 30.085882 " stroke="#000000" stroke-width="14" stroke-opacity="1" stroke-miterlimit="4"/></g></g><g clip-path="url(#271eeb4de4)"><g clip-path="url(#138d4d7e85)"><path fill="#ffde59" d="M 322.785156 165.371094 L 375.320312 165.371094 L 375.320312 210.5 L 322.785156 210.5 Z M 322.785156 165.371094 " fill-opacity="1" fill-rule="nonzero"/></g></g><g clip-path="url(#773d314757)"><g clip-path="url(#cc5cf97390)"><path stroke-linecap="butt" transform="matrix(0.75, 0, 0, 0.75, 322.784016, 165.371502)" fill="none" stroke-linejoin="miter" d="M 70.01715 30.082791 L 52.51194 60.171335 L 17.501521 60.171335 L 0.00152019 30.082791 L 17.501521 -0.000544254 L 52.51194 -0.000544254 Z M 70.01715 30.082791 " stroke="#000000" stroke-width="14" stroke-opacity="1" stroke-miterlimit="4"/></g></g><g clip-path="url(#3f6bef450c)"><g clip-path="url(#5637bfba32)"><path fill="#545454" d="M 322.785156 211.441406 L 375.320312 211.441406 L 375.320312 256.574219 L 322.785156 256.574219 Z M 322.785156 211.441406 " fill-opacity="1" fill-rule="nonzero"/></g></g><g clip-path="url(#bc96b596e3)"><g clip-path="url(#fbfb5c0b61)"><path stroke-linecap="butt" transform="matrix(0.75, 0, 0, 0.75, 322.784016, 211.44397)" fill="none" stroke-linejoin="miter" d="M 70.01715 30.085125 L 52.51194 60.16846 L 17.501521 60.16846 L 0.00152019 30.085125 L 17.501521 0.00178985 L 52.51194 0.00178985 Z M 70.01715 30.085125 " stroke="#000000" stroke-width="14" stroke-opacity="1" stroke-miterlimit="4"/></g></g><g clip-path="url(#087566902e)"><g clip-path="url(#e61f0bba03)"><path fill="#ffde59" d="M 282.425781 234.4375 L 334.960938 234.4375 L 334.960938 279.566406 L 282.425781 279.566406 Z M 282.425781 234.4375 " fill-opacity="1" fill-rule="nonzero"/></g></g><g clip-path="url(#8ef7a2fb9d)"><g clip-path="url(#115e5a6819)"><path stroke-linecap="butt" transform="matrix(0.75, 0, 0, 0.75, 282.425259, 234.437723)" fill="none" stroke-linejoin="miter" d="M 70.016326 30.083038 L 52.511117 60.171582 L 17.505906 60.171582 L 0.000696661 30.083038 L 17.505906 -0.00029734 L 52.511117 -0.00029734 Z M 70.016326 30.083038 " stroke="#000000" stroke-width="14" stroke-opacity="1" stroke-miterlimit="4"/></g></g><g clip-path="url(#ead2933087)"><g clip-path="url(#5d3eb0e7a1)"><path fill="#ffde59" d="M 242.066406 165.371094 L 294.601562 165.371094 L 294.601562 210.5 L 242.066406 210.5 Z M 242.066406 165.371094 " fill-opacity="1" fill-rule="nonzero"/></g></g><g clip-path="url(#3473fbd147)"><g clip-path="url(#da5e6e32b3)"><path stroke-linecap="butt" transform="matrix(0.75, 0, 0, 0.75, 242.066473, 165.371502)" fill="none" stroke-linejoin="miter" d="M 70.015541 30.082791 L 52.510332 60.171335 L 17.505121 60.171335 L -0.0000884724 30.082791 L 17.505121 -0.000544254 L 52.510332 -0.000544254 Z M 70.015541 30.082791 " stroke="#000000" stroke-width="14" stroke-opacity="1" stroke-miterlimit="4"/></g></g><g clip-path="url(#3bcc12ddc7)"><g clip-path="url(#2c0285f0c6)"><path fill="#ffde59" d="M 242.066406 211.441406 L 294.601562 211.441406 L 294.601562 256.574219 L 242.066406 256.574219 Z M 242.066406 211.441406 " fill-opacity="1" fill-rule="nonzero"/></g></g><g clip-path="url(#76e293014e)"><g clip-path="url(#8180a9c750)"><path stroke-linecap="butt" transform="matrix(0.75, 0, 0, 0.75, 242.066473, 211.44397)" fill="none" stroke-linejoin="miter" d="M 70.015541 30.085125 L 52.510332 60.16846 L 17.505121 60.16846 L -0.0000884724 30.085125 L 17.505121 0.00178985 L 52.510332 0.00178985 Z M 70.015541 30.085125 " stroke="#000000" stroke-width="14" stroke-opacity="1" stroke-miterlimit="4"/></g></g><g clip-path="url(#70059ed048)"><g clip-path="url(#37020f1e1c)"><path fill="#ffde59" d="M 120.988281 49.820312 L 173.527344 49.820312 L 173.527344 94.953125 L 120.988281 94.953125 Z M 120.988281 49.820312 " fill-opacity="1" fill-rule="nonzero"/></g></g><g clip-path="url(#a9f6809233)"><g clip-path="url(#eab76de3fa)"><path stroke-linecap="butt" transform="matrix(0.75, 0, 0, 0.75, 120.990193, 49.822636)" fill="none" stroke-linejoin="miter" d="M 70.01308 30.085446 L 52.513079 60.168781 L 17.50266 60.168781 L -0.00254947 30.085446 L 17.50266 0.00211043 L 52.513079 0.00211043 Z M 70.01308 30.085446 " stroke="#000000" stroke-width="14" stroke-opacity="1" stroke-miterlimit="4"/></g></g><g clip-path="url(#662a43ff4b)"><g clip-path="url(#843322b324)"><path fill="#545454" d="M 120.988281 3.785156 L 173.527344 3.785156 L 173.527344 48.914062 L 120.988281 48.914062 Z M 120.988281 3.785156 " fill-opacity="1" fill-rule="nonzero"/></g></g><g clip-path="url(#32dca10ecf)"><g clip-path="url(#b972e57573)"><path stroke-linecap="butt" transform="matrix(0.75, 0, 0, 0.75, 120.990193, 3.784469)" fill="none" stroke-linejoin="miter" d="M 70.01308 30.084251 L 52.513079 60.167586 L 17.50266 60.167586 L -0.00254947 30.084251 L 17.50266 0.000915843 L 52.513079 0.000915843 Z M 70.01308 30.084251 " stroke="#000000" stroke-width="14" stroke-opacity="1" stroke-miterlimit="4"/></g></g><g clip-path="url(#af7b893cfa)"><g clip-path="url(#fb88e6e3ac)"><path fill="#ffffff" d="M 161.347656 26.792969 L 213.882812 26.792969 L 213.882812 71.925781 L 161.347656 71.925781 Z M 161.347656 26.792969 " fill-opacity="1" fill-rule="nonzero"/></g></g><g clip-path="url(#35e78daf26)"><g clip-path="url(#6ea461c812)"><path stroke-linecap="butt" transform="matrix(0.75, 0, 0, 0.75, 161.348944, 26.7946)" fill="none" stroke-linejoin="miter" d="M 70.013913 30.086369 L 52.513912 60.169704 L 17.503493 60.169704 L -0.00171634 30.086369 L 17.503493 -0.00217468 L 52.513912 -0.00217468 Z M 70.013913 30.086369 " stroke="#000000" stroke-width="14" stroke-opacity="1" stroke-miterlimit="4"/></g></g><g clip-path="url(#e48c7bf3a6)"><g clip-path="url(#e91196dec0)"><path fill="#ffffff" d="M 161.347656 72.867188 L 213.882812 72.867188 L 213.882812 117.996094 L 161.347656 117.996094 Z M 161.347656 72.867188 " fill-opacity="1" fill-rule="nonzero"/></g></g><g clip-path="url(#3577b8f4ff)"><g clip-path="url(#2f94050b0d)"><path stroke-linecap="butt" transform="matrix(0.75, 0, 0, 0.75, 161.348944, 72.867079)" fill="none" stroke-linejoin="miter" d="M 70.013913 30.08348 L 52.513912 60.172023 L 17.503493 60.172023 L -0.00171634 30.08348 L 17.503493 0.00014438 L 52.513912 0.00014438 Z M 70.013913 30.08348 " stroke="#000000" stroke-width="14" stroke-opacity="1" stroke-miterlimit="4"/></g></g><g clip-path="url(#8dfd84b9d8)"><g clip-path="url(#e0c2156d7f)"><path fill="#ffde59" d="M 120.988281 95.859375 L 173.527344 95.859375 L 173.527344 140.992188 L 120.988281 140.992188 Z M 120.988281 95.859375 " fill-opacity="1" fill-rule="nonzero"/></g></g><g clip-path="url(#b23dc9fa03)"><g clip-path="url(#0b987653c1)"><path stroke-linecap="butt" transform="matrix(0.75, 0, 0, 0.75, 120.990193, 95.860803)" fill="none" stroke-linejoin="miter" d="M 70.01308 30.086639 L 52.513079 60.169975 L 17.50266 60.169975 L -0.00254947 30.086639 L 17.50266 -0.00190441 L 52.513079 -0.00190441 Z M 70.01308 30.086639 " stroke="#000000" stroke-width="14" stroke-opacity="1" stroke-miterlimit="4"/></g></g><g clip-path="url(#6c3982ccd2)"><g clip-path="url(#242204d2a1)"><path fill="#ffde59" d="M 80.632812 26.792969 L 133.167969 26.792969 L 133.167969 71.925781 L 80.632812 71.925781 Z M 80.632812 26.792969 " fill-opacity="1" fill-rule="nonzero"/></g></g><g clip-path="url(#14c0f3673f)"><g clip-path="url(#0d14bca2fc)"><path stroke-linecap="butt" transform="matrix(0.75, 0, 0, 0.75, 80.631429, 26.7946)" fill="none" stroke-linejoin="miter" d="M 70.017475 30.086369 L 52.512265 60.169704 L 17.501846 60.169704 L 0.00184493 30.086369 L 17.501846 -0.00217468 L 52.512265 -0.00217468 Z M 70.017475 30.086369 " stroke="#000000" stroke-width="14" stroke-opacity="1" stroke-miterlimit="4"/></g></g><g clip-path="url(#8536a8f3bd)"><g clip-path="url(#1ca05e2da4)"><path fill="#737373" d="M 80.632812 72.867188 L 133.167969 72.867188 L 133.167969 117.996094 L 80.632812 117.996094 Z M 80.632812 72.867188 " fill-opacity="1" fill-rule="nonzero"/></g></g><g clip-path="url(#17ae1926b5)"><g clip-path="url(#6a0c50561b)"><path stroke-linecap="butt" transform="matrix(0.75, 0, 0, 0.75, 80.631429, 72.867079)" fill="none" stroke-linejoin="miter" d="M 70.017475 30.08348 L 52.512265 60.172023 L 17.501846 60.172023 L 0.00184493 30.08348 L 17.501846 0.00014438 L 52.512265 0.00014438 Z M 70.017475 30.08348 " stroke="#000000" stroke-width="14" stroke-opacity="1" stroke-miterlimit="4"/></g></g><g clip-path="url(#31e97e061c)"><g clip-path="url(#ebe9e06390)"><path fill="#ffde59" d="M 40.359375 141.898438 L 92.894531 141.898438 L 92.894531 187.03125 L 40.359375 187.03125 Z M 40.359375 141.898438 " fill-opacity="1" fill-rule="nonzero"/></g></g><g clip-path="url(#cd78c5b232)"><g clip-path="url(#a584f1d353)"><path stroke-linecap="butt" transform="matrix(0.75, 0, 0, 0.75, 40.358769, 141.898951)" fill="none" stroke-linejoin="miter" d="M 70.016438 30.08265 L 52.511228 60.171194 L 17.506017 60.171194 L 0.000807934 30.08265 L 17.506017 -0.000685309 L 52.511228 -0.000685309 Z M 70.016438 30.08265 " stroke="#000000" stroke-width="14" stroke-opacity="1" stroke-miterlimit="4"/></g></g><g clip-path="url(#9becdd73b3)"><g clip-path="url(#c10b2fbdf4)"><path fill="#ffffff" d="M 40.359375 95.859375 L 92.894531 95.859375 L 92.894531 140.992188 L 40.359375 140.992188 Z M 40.359375 95.859375 " fill-opacity="1" fill-rule="nonzero"/></g></g><g clip-path="url(#c2beee6fb1)"><g clip-path="url(#735bf75826)"><path stroke-linecap="butt" transform="matrix(0.75, 0, 0, 0.75, 40.358769, 95.860803)" fill="none" stroke-linejoin="miter" d="M 70.016438 30.086639 L 52.511228 60.169975 L 17.506017 60.169975 L 0.000807934 30.086639 L 17.506017 -0.00190441 L 52.511228 -0.00190441 Z M 70.016438 30.086639 " stroke="#000000" stroke-width="14" stroke-opacity="1" stroke-miterlimit="4"/></g></g><g clip-path="url(#ea24a39a09)"><g clip-path="url(#1599fef139)"><path fill="#545454" d="M 80.71875 118.871094 L 133.253906 118.871094 L 133.253906 164 L 80.71875 164 Z M 80.71875 118.871094 " fill-opacity="1" fill-rule="nonzero"/></g></g><g clip-path="url(#ca8b44f264)"><g clip-path="url(#b142bcf952)"><path stroke-linecap="butt" transform="matrix(0.75, 0, 0, 0.75, 80.717534, 118.870934)" fill="none" stroke-linejoin="miter" d="M 70.017251 30.083549 L 52.512042 60.172092 L 17.501623 60.172092 L 0.00162187 30.083549 L 17.501623 0.000213274 L 52.512042 0.000213274 Z M 70.017251 30.083549 " stroke="#000000" stroke-width="14" stroke-opacity="1" stroke-miterlimit="4"/></g></g><g clip-path="url(#32625607bb)"><g clip-path="url(#92e6fb3b11)"><path fill="#ffde59" d="M 80.71875 164.941406 L 133.253906 164.941406 L 133.253906 210.074219 L 80.71875 210.074219 Z M 80.71875 164.941406 " fill-opacity="1" fill-rule="nonzero"/></g></g><g clip-path="url(#76ae50a959)"><g clip-path="url(#f6374801cd)"><path stroke-linecap="butt" transform="matrix(0.75, 0, 0, 0.75, 80.717534, 164.943388)" fill="none" stroke-linejoin="miter" d="M 70.017251 30.085902 L 52.512042 60.169237 L 17.501623 60.169237 L 0.00162187 30.085902 L 17.501623 0.00256658 L 52.512042 0.00256658 Z M 70.017251 30.085902 " stroke="#000000" stroke-width="14" stroke-opacity="1" stroke-miterlimit="4"/></g></g><g clip-path="url(#c438d63952)"><g clip-path="url(#7d7abbf99f)"><path fill="#545454" d="M 40.359375 187.9375 L 92.894531 187.9375 L 92.894531 233.066406 L 40.359375 233.066406 Z M 40.359375 187.9375 " fill-opacity="1" fill-rule="nonzero"/></g></g><g clip-path="url(#bb3ac9adfd)"><g clip-path="url(#e9a1ddedd8)"><path stroke-linecap="butt" transform="matrix(0.75, 0, 0, 0.75, 40.358769, 187.937126)" fill="none" stroke-linejoin="miter" d="M 70.016438 30.083834 L 52.511228 60.167169 L 17.506017 60.167169 L 0.000807934 30.083834 L 17.506017 0.000498588 L 52.511228 0.000498588 Z M 70.016438 30.083834 " stroke="#000000" stroke-width="14" stroke-opacity="1" stroke-miterlimit="4"/></g></g><g clip-path="url(#e34a7334df)"><g clip-path="url(#c8a161cd22)"><path fill="#545454" d="M 0 118.871094 L 52.535156 118.871094 L 52.535156 164 L 0 164 Z M 0 118.871094 " fill-opacity="1" fill-rule="nonzero"/></g></g><g clip-path="url(#4c3ca561c0)"><g clip-path="url(#a226d2e502)"><path stroke-linecap="butt" transform="matrix(0.75, 0, 0, 0.75, 0.0000045, 118.870934)" fill="none" stroke-linejoin="miter" d="M 70.015624 30.083549 L 52.510414 60.172092 L 17.505203 60.172092 L -0.000006 30.083549 L 17.505203 0.000213274 L 52.510414 0.000213274 Z M 70.015624 30.083549 " stroke="#000000" stroke-width="14" stroke-opacity="1" stroke-miterlimit="4"/></g></g><g clip-path="url(#574fec9b3c)"><g clip-path="url(#4a095dc526)"><path fill="#737373" d="M 0 164.941406 L 52.535156 164.941406 L 52.535156 210.074219 L 0 210.074219 Z M 0 164.941406 " fill-opacity="1" fill-rule="nonzero"/></g></g><g clip-path="url(#16c458d424)"><g clip-path="url(#a39c04535b)"><path stroke-linecap="butt" transform="matrix(0.75, 0, 0, 0.75, 0.0000045, 164.943388)" fill="none" stroke-linejoin="miter" d="M 70.015624 30.085902 L 52.510414 60.169237 L 17.505203 60.169237 L -0.000006 30.085902 L 17.505203 0.00256658 L 52.510414 0.00256658 Z M 70.015624 30.085902 " stroke="#000000" stroke-width="14" stroke-opacity="1" stroke-miterlimit="4"/></g></g><g clip-path="url(#816acf1a42)"><g clip-path="url(#ad8133ab4e)"><path fill="#ffffff" d="M 80.632812 257.480469 L 133.167969 257.480469 L 133.167969 302.613281 L 80.632812 302.613281 Z M 80.632812 257.480469 " fill-opacity="1" fill-rule="nonzero"/></g></g><g clip-path="url(#5e442c026f)"><g clip-path="url(#a00da78b50)"><path stroke-linecap="butt" transform="matrix(0.75, 0, 0, 0.75, 80.631429, 257.482161)" fill="none" stroke-linejoin="miter" d="M 70.017475 30.086287 L 52.512265 60.169622 L 17.501846 60.169622 L 0.00184493 30.086287 L 17.501846 -0.00225699 L 52.512265 -0.00225699 Z M 70.017475 30.086287 " stroke="#000000" stroke-width="14" stroke-opacity="1" stroke-miterlimit="4"/></g></g><g clip-path="url(#699fdb3f7c)"><g clip-path="url(#f0ba683d89)"><path fill="#737373" d="M 80.632812 211.441406 L 133.167969 211.441406 L 133.167969 256.574219 L 80.632812 256.574219 Z M 80.632812 211.441406 " fill-opacity="1" fill-rule="nonzero"/></g></g><g clip-path="url(#6db8f471ea)"><g clip-path="url(#cdc28321a3)"><path stroke-linecap="butt" transform="matrix(0.75, 0, 0, 0.75, 80.631429, 211.44397)" fill="none" stroke-linejoin="miter" d="M 70.017475 30.085125 L 52.512265 60.16846 L 17.501846 60.16846 L 0.00184493 30.085125 L 17.501846 0.00178985 L 52.512265 0.00178985 Z M 70.017475 30.085125 " stroke="#000000" stroke-width="14" stroke-opacity="1" stroke-miterlimit="4"/></g></g><g clip-path="url(#32d44d0b07)"><g clip-path="url(#b231ff105a)"><path fill="#ffde59" d="M 120.988281 234.453125 L 173.527344 234.453125 L 173.527344 279.585938 L 120.988281 279.585938 Z M 120.988281 234.453125 " fill-opacity="1" fill-rule="nonzero"/></g></g><g clip-path="url(#b772682cbb)"><g clip-path="url(#82d3304926)"><path stroke-linecap="butt" transform="matrix(0.75, 0, 0, 0.75, 120.990193, 234.454101)" fill="none" stroke-linejoin="miter" d="M 70.01308 30.087243 L 52.513079 60.170578 L 17.50266 60.170578 L -0.00254947 30.087243 L 17.50266 -0.00130081 L 52.513079 -0.00130081 Z M 70.01308 30.087243 " stroke="#000000" stroke-width="14" stroke-opacity="1" stroke-miterlimit="4"/></g></g><g clip-path="url(#a4d8ff08e7)"><g clip-path="url(#c68960a34d)"><path fill="#545454" d="M 120.988281 280.527344 L 173.527344 280.527344 L 173.527344 325.65625 L 120.988281 325.65625 Z M 120.988281 280.527344 " fill-opacity="1" fill-rule="nonzero"/></g></g><g clip-path="url(#eff6178168)"><g clip-path="url(#826ceb8674)"><path stroke-linecap="butt" transform="matrix(0.75, 0, 0, 0.75, 120.990193, 280.526583)" fill="none" stroke-linejoin="miter" d="M 70.01308 30.084349 L 52.513079 60.167685 L 17.50266 60.167685 L -0.00254947 30.084349 L 17.50266 0.0010141 L 52.513079 0.0010141 Z M 70.01308 30.084349 " stroke="#000000" stroke-width="14" stroke-opacity="1" stroke-miterlimit="4"/></g></g><g clip-path="url(#a54a041299)"><g clip-path="url(#17645094a4)"><path fill="#737373" d="M 80.632812 303.519531 L 133.167969 303.519531 L 133.167969 348.652344 L 80.632812 348.652344 Z M 80.632812 303.519531 " fill-opacity="1" fill-rule="nonzero"/></g></g><g clip-path="url(#174ec0c2b6)"><g clip-path="url(#fbcb6215eb)"><path stroke-linecap="butt" transform="matrix(0.75, 0, 0, 0.75, 80.631429, 303.520322)" fill="none" stroke-linejoin="miter" d="M 70.017475 30.082281 L 52.512265 60.170825 L 17.501846 60.170825 L 0.00184493 30.082281 L 17.501846 -0.00105389 L 52.512265 -0.00105389 Z M 70.017475 30.082281 " stroke="#000000" stroke-width="14" stroke-opacity="1" stroke-miterlimit="4"/></g></g><g clip-path="url(#ec5dd64162)"><g clip-path="url(#e091671aeb)"><path fill="#ffde59" d="M 40.273438 234.453125 L 92.808594 234.453125 L 92.808594 279.585938 L 40.273438 279.585938 Z M 40.273438 234.453125 " fill-opacity="1" fill-rule="nonzero"/></g></g><g clip-path="url(#dacc19ee04)"><g clip-path="url(#9d9615f44a)"><path stroke-linecap="butt" transform="matrix(0.75, 0, 0, 0.75, 40.272669, 234.454101)" fill="none" stroke-linejoin="miter" d="M 70.016654 30.087243 L 52.511445 60.170578 L 17.506234 60.170578 L 0.00102459 30.087243 L 17.506234 -0.00130081 L 52.511445 -0.00130081 Z M 70.016654 30.087243 " stroke="#000000" stroke-width="14" stroke-opacity="1" stroke-miterlimit="4"/></g></g><g clip-path="url(#39022f6462)"><g clip-path="url(#a5caeea704)"><path fill="#ffde59" d="M 40.273438 280.527344 L 92.808594 280.527344 L 92.808594 325.65625 L 40.273438 325.65625 Z M 40.273438 280.527344 " fill-opacity="1" fill-rule="nonzero"/></g></g><g clip-path="url(#4379efc0e2)"><g clip-path="url(#9d4bb5f399)"><path stroke-linecap="butt" transform="matrix(0.75, 0, 0, 0.75, 40.272669, 280.526583)" fill="none" stroke-linejoin="miter" d="M 70.016654 30.084349 L 52.511445 60.167685 L 17.506234 60.167685 L 0.00102459 30.084349 L 17.506234 0.0010141 L 52.511445 0.0010141 Z M 70.016654 30.084349 " stroke="#000000" stroke-width="14" stroke-opacity="1" stroke-miterlimit="4"/></g></g><g clip-path="url(#9f7f52d7cb)"><g clip-path="url(#21a7723310)"><path fill="#ffffff" d="M 201.707031 280.046875 L 254.242188 280.046875 L 254.242188 325.179688 L 201.707031 325.179688 Z M 201.707031 280.046875 " fill-opacity="1" fill-rule="nonzero"/></g></g><g clip-path="url(#4a07d4f2f2)"><g clip-path="url(#38b7c5ada0)"><path stroke-linecap="butt" transform="matrix(0.75, 0, 0, 0.75, 201.707715, 280.047754)" fill="none" stroke-linejoin="miter" d="M 70.014718 30.087371 L 52.509508 60.170706 L 17.504297 60.170706 L -0.000912006 30.087371 L 17.504297 -0.00117255 L 52.509508 -0.00117255 Z M 70.014718 30.087371 " stroke="#000000" stroke-width="14" stroke-opacity="1" stroke-miterlimit="4"/></g></g><g clip-path="url(#2a94ef6765)"><g clip-path="url(#1e0b918e2c)"><path fill="#737373" d="M 201.707031 234.007812 L 254.242188 234.007812 L 254.242188 279.140625 L 201.707031 279.140625 Z M 201.707031 234.007812 " fill-opacity="1" fill-rule="nonzero"/></g></g><g clip-path="url(#35539feda4)"><g clip-path="url(#01b354acb3)"><path stroke-linecap="butt" transform="matrix(0.75, 0, 0, 0.75, 201.707715, 234.009594)" fill="none" stroke-linejoin="miter" d="M 70.014718 30.086168 L 52.509508 60.169503 L 17.504297 60.169503 L -0.000912006 30.086168 L 17.504297 -0.00237564 L 52.509508 -0.00237564 Z M 70.014718 30.086168 " stroke="#000000" stroke-width="14" stroke-opacity="1" stroke-miterlimit="4"/></g></g><g clip-path="url(#187f51f866)"><g clip-path="url(#bc5ed8293d)"><path fill="#545454" d="M 242.066406 257.019531 L 294.601562 257.019531 L 294.601562 302.148438 L 242.066406 302.148438 Z M 242.066406 257.019531 " fill-opacity="1" fill-rule="nonzero"/></g></g><g clip-path="url(#7a9b6bb67e)"><g clip-path="url(#e2a98379a1)"><path stroke-linecap="butt" transform="matrix(0.75, 0, 0, 0.75, 242.066473, 257.01971)" fill="none" stroke-linejoin="miter" d="M 70.015541 30.083097 L 52.510332 60.17164 L 17.505121 60.17164 L -0.0000884724 30.083097 L 17.505121 -0.000238763 L 52.510332 -0.000238763 Z M 70.015541 30.083097 " stroke="#000000" stroke-width="14" stroke-opacity="1" stroke-miterlimit="4"/></g></g><g clip-path="url(#c0fbbacd09)"><g clip-path="url(#afca1dd183)"><path fill="#545454" d="M 242.066406 303.089844 L 294.601562 303.089844 L 294.601562 348.222656 L 242.066406 348.222656 Z M 242.066406 303.089844 " fill-opacity="1" fill-rule="nonzero"/></g></g><g clip-path="url(#a150f6fb81)"><g clip-path="url(#32ae4ac207)"><path stroke-linecap="butt" transform="matrix(0.75, 0, 0, 0.75, 242.066473, 303.092207)" fill="none" stroke-linejoin="miter" d="M 70.015541 30.085392 L 52.510332 60.168728 L 17.505121 60.168728 L -0.0000884724 30.085392 L 17.505121 0.00205694 L 52.510332 0.00205694 Z M 70.015541 30.085392 " stroke="#000000" stroke-width="14" stroke-opacity="1" stroke-miterlimit="4"/></g></g><g clip-path="url(#c997e240f4)"><g clip-path="url(#cf3811d4be)"><path fill="#ffde59" d="M 201.707031 326.085938 L 254.242188 326.085938 L 254.242188 371.214844 L 201.707031 371.214844 Z M 201.707031 326.085938 " fill-opacity="1" fill-rule="nonzero"/></g></g><g clip-path="url(#c6807fa6a2)"><g clip-path="url(#e6147207c9)"><path stroke-linecap="butt" transform="matrix(0.75, 0, 0, 0.75, 201.707715, 326.085946)" fill="none" stroke-linejoin="miter" d="M 70.014718 30.083324 L 52.509508 60.171868 L 17.504297 60.171868 L -0.000912006 30.083324 L 17.504297 -0.0000110494 L 52.509508 -0.0000110494 Z M 70.014718 30.083324 " stroke="#000000" stroke-width="14" stroke-opacity="1" stroke-miterlimit="4"/></g></g><g clip-path="url(#493e9ce666)"><g clip-path="url(#3b51b224cb)"><path fill="#545454" d="M 161.347656 257.019531 L 213.882812 257.019531 L 213.882812 302.148438 L 161.347656 302.148438 Z M 161.347656 257.019531 " fill-opacity="1" fill-rule="nonzero"/></g></g><g clip-path="url(#e91e8954fc)"><g clip-path="url(#9c43f0706c)"><path stroke-linecap="butt" transform="matrix(0.75, 0, 0, 0.75, 161.348944, 257.01971)" fill="none" stroke-linejoin="miter" d="M 70.013913 30.083097 L 52.513912 60.17164 L 17.503493 60.17164 L -0.00171634 30.083097 L 17.503493 -0.000238763 L 52.513912 -0.000238763 Z M 70.013913 30.083097 " stroke="#000000" stroke-width="14" stroke-opacity="1" stroke-miterlimit="4"/></g></g><g clip-path="url(#7d26a3d228)"><g clip-path="url(#59bf2fb24c)"><path fill="#ffde59" d="M 161.347656 303.089844 L 213.882812 303.089844 L 213.882812 348.222656 L 161.347656 348.222656 Z M 161.347656 303.089844 " fill-opacity="1" fill-rule="nonzero"/></g></g><g clip-path="url(#298dbea33e)"><g clip-path="url(#933948bd9b)"><path stroke-linecap="butt" transform="matrix(0.75, 0, 0, 0.75, 161.348944, 303.092207)" fill="none" stroke-linejoin="miter" d="M 70.013913 30.085392 L 52.513912 60.168728 L 17.503493 60.168728 L -0.00171634 30.085392 L 17.503493 0.00205694 L 52.513912 0.00205694 Z M 70.013913 30.085392 " stroke="#000000" stroke-width="14" stroke-opacity="1" stroke-miterlimit="4"/></g></g><g clip-path="url(#ccf6fb0ed2)"><g clip-path="url(#5b9bbb95cf)"><path fill="#737373" d="M 142.785156 3.785156 L 367.933594 3.785156 L 367.933594 194.636719 L 142.785156 194.636719 Z M 142.785156 3.785156 " fill-opacity="1" fill-rule="nonzero"/></g></g><g clip-path="url(#962e5897c1)"><g clip-path="url(#2ab8455fb0)"><path stroke-linecap="butt" transform="matrix(0.75, 0, 0, 0.75, 142.78693, 3.787961)" fill="none" stroke-linejoin="miter" d="M 199.226815 0.00146904 L 101.039309 0.00146904 C 45.232014 0.00146904 -0.00236437 44.188972 -0.00236437 98.704601 C -0.00236437 138.168145 23.711179 172.204605 57.976806 188.001481 L 57.976806 254.459819 L 126.601811 197.402524 L 199.226815 197.402524 C 255.200777 197.402524 300.435155 153.209812 300.435155 98.699392 C 300.440364 44.188972 255.200777 0.00146904 199.226815 0.00146904 Z M 199.226815 0.00146904 " stroke="#000000" stroke-width="18" stroke-opacity="1" stroke-miterlimit="4"/></g></g><g fill="#ffffff" fill-opacity="1"><g transform="translate(156.146304, 94.533639)"><g><path d="M 13.703125 -5.203125 C 15.003906 -5.203125 16.0625 -5.554688 16.875 -6.265625 C 17.6875 -6.984375 18.109375 -7.9375 18.140625 -9.125 L 24.75 -9.125 C 24.738281 -7.34375 24.25 -5.707031 23.28125 -4.21875 C 22.320312 -2.726562 21.007812 -1.570312 19.34375 -0.75 C 17.675781 0.0703125 15.832031 0.484375 13.8125 0.484375 C 10.039062 0.484375 7.0625 -0.710938 4.875 -3.109375 C 2.695312 -5.515625 1.609375 -8.832031 1.609375 -13.0625 L 1.609375 -13.53125 C 1.609375 -17.59375 2.691406 -20.835938 4.859375 -23.265625 C 7.023438 -25.691406 9.992188 -26.90625 13.765625 -26.90625 C 17.066406 -26.90625 19.710938 -25.960938 21.703125 -24.078125 C 23.703125 -22.203125 24.71875 -19.703125 24.75 -16.578125 L 18.140625 -16.578125 C 18.109375 -17.941406 17.6875 -19.050781 16.875 -19.90625 C 16.0625 -20.757812 14.984375 -21.1875 13.640625 -21.1875 C 12.003906 -21.1875 10.765625 -20.585938 9.921875 -19.390625 C 9.085938 -18.203125 8.671875 -16.265625 8.671875 -13.578125 L 8.671875 -12.84375 C 8.671875 -10.125 9.082031 -8.171875 9.90625 -6.984375 C 10.738281 -5.796875 12.003906 -5.203125 13.703125 -5.203125 Z M 13.703125 -5.203125 "/></g></g></g><g fill="#ffffff" fill-opacity="1"><g transform="translate(182.216447, 94.533639)"><g><path d="M 9.59375 -23.53125 C 11.46875 -25.78125 13.820312 -26.90625 16.65625 -26.90625 C 22.382812 -26.90625 25.285156 -23.578125 25.359375 -16.921875 L 25.359375 0 L 18.3125 0 L 18.3125 -16.71875 C 18.3125 -18.238281 17.984375 -19.359375 17.328125 -20.078125 C 16.679688 -20.804688 15.601562 -21.171875 14.09375 -21.171875 C 12.019531 -21.171875 10.519531 -20.375 9.59375 -18.78125 L 9.59375 0 L 2.546875 0 L 2.546875 -37.5 L 9.59375 -37.5 Z M 9.59375 -23.53125 "/></g></g></g><g fill="#ffffff" fill-opacity="1"><g transform="translate(210.190589, 94.533639)"><g><path d="M 18.015625 0 C 17.691406 -0.632812 17.457031 -1.425781 17.3125 -2.375 C 15.601562 -0.46875 13.378906 0.484375 10.640625 0.484375 C 8.054688 0.484375 5.910156 -0.257812 4.203125 -1.75 C 2.503906 -3.25 1.65625 -5.140625 1.65625 -7.421875 C 1.65625 -10.222656 2.691406 -12.367188 4.765625 -13.859375 C 6.847656 -15.359375 9.847656 -16.117188 13.765625 -16.140625 L 17.015625 -16.140625 L 17.015625 -17.65625 C 17.015625 -18.875 16.703125 -19.847656 16.078125 -20.578125 C 15.453125 -21.316406 14.460938 -21.6875 13.109375 -21.6875 C 11.921875 -21.6875 10.988281 -21.398438 10.3125 -20.828125 C 9.632812 -20.253906 9.296875 -19.472656 9.296875 -18.484375 L 2.25 -18.484375 C 2.25 -20.015625 2.71875 -21.429688 3.65625 -22.734375 C 4.601562 -24.035156 5.9375 -25.054688 7.65625 -25.796875 C 9.382812 -26.535156 11.328125 -26.90625 13.484375 -26.90625 C 16.734375 -26.90625 19.3125 -26.085938 21.21875 -24.453125 C 23.132812 -22.816406 24.09375 -20.515625 24.09375 -17.546875 L 24.09375 -6.109375 C 24.113281 -3.597656 24.460938 -1.703125 25.140625 -0.421875 L 25.140625 0 Z M 12.1875 -4.90625 C 13.226562 -4.90625 14.1875 -5.132812 15.0625 -5.59375 C 15.9375 -6.0625 16.585938 -6.6875 17.015625 -7.46875 L 17.015625 -12.015625 L 14.375 -12.015625 C 10.84375 -12.015625 8.960938 -10.789062 8.734375 -8.34375 L 8.71875 -7.9375 C 8.71875 -7.050781 9.023438 -6.320312 9.640625 -5.75 C 10.265625 -5.1875 11.113281 -4.90625 12.1875 -4.90625 Z M 12.1875 -4.90625 "/></g></g></g><g fill="#ffffff" fill-opacity="1"><g transform="translate(236.99304, 94.533639)"><g><path d="M 11.15625 -32.90625 L 11.15625 -26.421875 L 15.671875 -26.421875 L 15.671875 -21.234375 L 11.15625 -21.234375 L 11.15625 -8.0625 C 11.15625 -7.082031 11.34375 -6.378906 11.71875 -5.953125 C 12.09375 -5.535156 12.8125 -5.328125 13.875 -5.328125 C 14.65625 -5.328125 15.34375 -5.382812 15.9375 -5.5 L 15.9375 -0.140625 C 14.5625 0.273438 13.140625 0.484375 11.671875 0.484375 C 6.722656 0.484375 4.203125 -2.007812 4.109375 -7 L 4.109375 -21.234375 L 0.25 -21.234375 L 0.25 -26.421875 L 4.109375 -26.421875 L 4.109375 -32.90625 Z M 11.15625 -32.90625 "/></g></g></g><g fill="#ffffff" fill-opacity="1"><g transform="translate(253.88493, 94.533639)"><g><path d="M 32.109375 0 L 24.78125 0 L 24.78125 -15.234375 L 10.5 -15.234375 L 10.5 0 L 3.171875 0 L 3.171875 -35.546875 L 10.5 -35.546875 L 10.5 -21.140625 L 24.78125 -21.140625 L 24.78125 -35.546875 L 32.109375 -35.546875 Z M 32.109375 0 "/></g></g></g><g fill="#ffffff" fill-opacity="1"><g transform="translate(289.206556, 94.533639)"><g><path d="M 10.15625 0 L 3.078125 0 L 3.078125 -26.421875 L 10.15625 -26.421875 Z M 2.65625 -33.25 C 2.65625 -34.3125 3.007812 -35.179688 3.71875 -35.859375 C 4.425781 -36.546875 5.390625 -36.890625 6.609375 -36.890625 C 7.816406 -36.890625 8.78125 -36.546875 9.5 -35.859375 C 10.21875 -35.179688 10.578125 -34.3125 10.578125 -33.25 C 10.578125 -32.175781 10.210938 -31.296875 9.484375 -30.609375 C 8.765625 -29.929688 7.804688 -29.59375 6.609375 -29.59375 C 5.421875 -29.59375 4.460938 -29.929688 3.734375 -30.609375 C 3.015625 -31.296875 2.65625 -32.175781 2.65625 -33.25 Z M 2.65625 -33.25 "/></g></g></g><g fill="#ffffff" fill-opacity="1"><g transform="translate(302.46132, 94.533639)"><g><path d="M 12.59375 -8.625 L 17.5 -26.421875 L 24.875 -26.421875 L 15.96875 0 L 9.234375 0 L 0.3125 -26.421875 L 7.6875 -26.421875 Z M 12.59375 -8.625 "/></g></g></g><g fill="#ffffff" fill-opacity="1"><g transform="translate(327.725925, 94.533639)"><g><path d="M 14.875 0.484375 C 11 0.484375 7.84375 -0.703125 5.40625 -3.078125 C 2.976562 -5.453125 1.765625 -8.617188 1.765625 -12.578125 L 1.765625 -13.25 C 1.765625 -15.90625 2.273438 -18.28125 3.296875 -20.375 C 4.316406 -22.46875 5.765625 -24.078125 7.640625 -25.203125 C 9.523438 -26.335938 11.675781 -26.90625 14.09375 -26.90625 C 17.695312 -26.90625 20.535156 -25.765625 22.609375 -23.484375 C 24.691406 -21.203125 25.734375 -17.972656 25.734375 -13.796875 L 25.734375 -10.90625 L 8.90625 -10.90625 C 9.132812 -9.1875 9.820312 -7.804688 10.96875 -6.765625 C 12.125 -5.722656 13.578125 -5.203125 15.328125 -5.203125 C 18.046875 -5.203125 20.171875 -6.1875 21.703125 -8.15625 L 25.171875 -4.265625 C 24.109375 -2.773438 22.675781 -1.609375 20.875 -0.765625 C 19.070312 0.0664062 17.070312 0.484375 14.875 0.484375 Z M 14.0625 -21.1875 C 12.664062 -21.1875 11.53125 -20.710938 10.65625 -19.765625 C 9.78125 -18.828125 9.222656 -17.476562 8.984375 -15.71875 L 18.796875 -15.71875 L 18.796875 -16.28125 C 18.765625 -17.84375 18.34375 -19.050781 17.53125 -19.90625 C 16.71875 -20.757812 15.5625 -21.1875 14.0625 -21.1875 Z M 14.0625 -21.1875 "/></g></g></g></svg>